<?xml version="1.0" encoding="UTF-8"?>
<svg version="1.1" xmlns="http://www.w3.org/2000/svg" width="2000" height="1600">
<path d="M0 0 C10.56 0 21.12 0 32 0 C32.33 2.64 32.66 5.28 33 8 C34.093125 7.979375 35.18625 7.95875 36.3125 7.9375 C40 8 40 8 43 9 C43 9.66 43 10.32 43 11 C43.66 11 44.32 11 45 11 C46.45184478 15.53701494 47.23509196 19.18061476 47 24 C47.66 24 48.32 24 49 24 C48.98259766 25.34191406 48.98259766 25.34191406 48.96484375 26.7109375 C48.95582031 27.92007813 48.94679688 29.12921875 48.9375 30.375 C48.92009766 32.15003906 48.92009766 32.15003906 48.90234375 33.9609375 C48.92624093 36.88607993 49.16278041 39.73339272 49.49072266 42.63964844 C50.01152006 47.70215709 50.18233307 52.71853565 50.24609375 57.8046875 C50.27898182 59.62240156 50.31219417 61.44010978 50.34570312 63.2578125 C50.39333224 66.08199695 50.43792879 68.90614958 50.47680664 71.73046875 C50.51645653 74.48459248 50.56795079 77.23829571 50.62109375 79.9921875 C50.63371498 81.2594014 50.63371498 81.2594014 50.64659119 82.55221558 C50.67155418 83.73462326 50.67155418 83.73462326 50.69702148 84.94091797 C50.70732895 85.63023407 50.71763641 86.31955017 50.72825623 87.02975464 C51.04681332 89.3394143 51.92458414 90.94542965 53 93 C53.31884766 95.65722656 53.31884766 95.65722656 53.4140625 98.640625 C53.45273438 99.71054688 53.49140625 100.78046875 53.53125 101.8828125 C53.5621875 102.99398437 53.593125 104.10515625 53.625 105.25 C53.68300781 106.93996094 53.68300781 106.93996094 53.7421875 108.6640625 C53.83637336 111.44254548 53.92199586 114.22102334 54 117 C54.66 117 55.32 117 56 117 C56.00586624 117.5593222 56.01173248 118.11864441 56.01777649 118.69491577 C56.08157787 124.50235216 56.16596184 130.30922753 56.26245117 136.11621094 C56.29576091 138.28508114 56.32377379 140.45403929 56.34643555 142.62304688 C56.37987055 145.73605938 56.43218013 148.8482614 56.48828125 151.9609375 C56.49467117 152.934935 56.5010611 153.9089325 56.50764465 154.91244507 C56.52743881 155.81322784 56.54723297 156.71401062 56.56762695 157.64208984 C56.58428154 158.83455826 56.58428154 158.83455826 56.60127258 160.05111694 C56.8445901 162.4048234 56.8445901 162.4048234 60 164 C60 164.66 60 165.32 60 166 C61.98 165.505 61.98 165.505 64 165 C63.98667633 165.58722839 63.97335266 166.17445679 63.95962524 166.77947998 C63.82588948 172.94472126 63.73598156 179.10954432 63.67041016 185.27587891 C63.64041531 187.57064578 63.59960509 189.86529975 63.54736328 192.15966797 C63.0197338 210.0016251 63.0197338 210.0016251 70 226 C71.01011119 229.14753676 71.10594362 231.9482852 71.0625 235.25 C71.05347656 236.14203125 71.04445313 237.0340625 71.03515625 237.953125 C71.01775391 238.96632813 71.01775391 238.96632813 71 240 C71.66 240 72.32 240 73 240 C73.01030746 240.84746796 73.02061493 241.69493591 73.03123474 242.56808472 C73.1290979 250.5436818 73.23159627 258.5192028 73.33933926 266.49467278 C73.39457017 270.5952165 73.44799044 274.69576735 73.49731445 278.79638672 C73.54495553 282.75161172 73.59729824 286.7067488 73.65294075 290.66186905 C73.67336547 292.17296289 73.69207836 293.68408084 73.70907402 295.19521713 C73.73311551 297.30715424 73.76317022 299.41892468 73.79467773 301.53076172 C73.81022202 302.73433319 73.8257663 303.93790466 73.84178162 305.177948 C73.81018777 307.95074633 73.81018777 307.95074633 75 310 C75.33 307.36 75.66 304.72 76 302 C76.99 302 77.98 302 79 302 C81.34625355 316.09691185 80.86793667 329.77167053 80 344 C79.01 344.33 78.02 344.66 77 345 C77 345.99 77 346.98 77 348 C79.31 348.33 81.62 348.66 84 349 C85.125 352.75 85.125 352.75 84 355 C84.99 355 85.98 355 87 355 C87.66 355.99 88.32 356.98 89 358 C91.05925139 358.72382467 91.05925139 358.72382467 93 359 C93.33 361.31 93.66 363.62 94 366 C96.31 365.67 98.62 365.34 101 365 C101.33 367.31 101.66 369.62 102 372 C103.299375 372.12375 104.59875 372.2475 105.9375 372.375 C108.15234375 372.5859375 108.15234375 372.5859375 110 373 C111.50156874 376.00313748 111.09281204 378.79067522 111.0625 382.125 C111.05347656 383.40632813 111.04445313 384.68765625 111.03515625 386.0078125 C111.01775391 387.48894531 111.01775391 387.48894531 111 389 C111.78375 389.103125 112.5675 389.20625 113.375 389.3125 C116 390 116 390 118 393 C118 394.32 118 395.64 118 397 C120.64 397 123.28 397 126 397 C126 397.66 126 398.32 126 399 C126.66 399 127.32 399 128 399 C128.1953125 400.98567708 128.390625 402.97135417 128.5859375 404.95703125 C128.92665391 407.29988142 128.92665391 407.29988142 131 410 C131.31642257 415.84748912 130.74202525 421.46983167 129.875 427.25 C129.7821875 428.03890625 129.689375 428.8278125 129.59375 429.640625 C128.92844216 434.01687211 128.61929794 435.5116763 125.0078125 438.359375 C124.01523438 438.90078125 123.02265625 439.4421875 122 440 C119.9701081 443.04483785 119.73196335 444.02054981 119.5 447.5 C119.26803665 450.97945019 119.0298919 451.95516215 117 455 C116.37222656 455.12246094 115.74445312 455.24492188 115.09765625 455.37109375 C110.46739013 456.75931134 108.19476476 462.98518642 106 467 C105.39648814 468.46291275 104.82646866 469.94077808 104.3125 471.4375 C102.98562407 475.03902038 101.97633156 476.6550115 99 479 C98.37351562 479.28101563 97.74703125 479.56203125 97.1015625 479.8515625 C92.95565519 482.11716984 90.29993927 485.95063884 88 490 C87.47294783 492.68951621 87.3068241 495.09993693 87.36328125 497.8359375 C87 500 87 500 85.18359375 501.77734375 C82.34349879 503.3675937 80.20203983 503.2183209 77 503 C77 504.32 77 505.64 77 507 C76.01 507 75.02 507 74 507 C74 507.99 74 508.98 74 510 C72.68 510 71.36 510 70 510 C70.33 511.65 70.66 513.3 71 515 C72.32 515 73.64 515 75 515 C75 517.31 75 519.62 75 522 C73.68 522 72.36 522 71 522 C70.67 520.35 70.34 518.7 70 517 C67.52733235 517.34444881 67.52733235 517.34444881 65 518 C63.27683169 521.44633662 63.70692514 525.44269937 63.57421875 529.25 C63 532 63 532 60.95703125 533.375 C60.31121094 533.58125 59.66539062 533.7875 59 534 C59 533.01 59 532.02 59 531 C58.01 531 57.02 531 56 531 C55.896875 531.9075 55.79375 532.815 55.6875 533.75 C54.97792658 537.10434706 54.54380077 538.71935104 52 541 C48.8125 541.25 48.8125 541.25 46 541 C46 542.98 46 544.96 46 547 C43.69 547.66 41.38 548.32 39 549 C39.061875 549.78375 39.12375 550.5675 39.1875 551.375 C39.125625 552.24125 39.06375 553.1075 39 554 C36 556 36 556 33 556 C33 556.66 33 557.32 33 558 C32.01 558.33 31.02 558.66 30 559 C29.938125 560.1446875 29.938125 560.1446875 29.875 561.3125 C29 564 29 564 26.0625 565.5 C25.051875 565.995 24.04125 566.49 23 567 C21.83046584 569.42383077 21.83046584 569.42383077 21 572 C18.875 574.3125 18.875 574.3125 17 576 C17.33 576.33 17.66 576.66 18 577 C18.01953125 579.21484375 18.01953125 579.21484375 17.8125 581.9375 C17.72935547 583.28134766 17.72935547 583.28134766 17.64453125 584.65234375 C17 587 17 587 15.13671875 588.37890625 C13 589 13 589 10 588 C8.82087806 588.99422187 8.82087806 588.99422187 8.625 590.875 C7.87026517 593.44109842 7.13465979 594.39900516 5 596 C3.33805547 596.35613097 1.671549 596.69208308 0 597 C-0.33 597.66 -0.66 598.32 -1 599 C-0.34 599 0.32 599 1 599 C0.67 599.99 0.34 600.98 0 602 C-1.093125 602.391875 -2.18625 602.78375 -3.3125 603.1875 C-5.7443279 604.10991748 -6.76196753 604.59879333 -8.10546875 606.86328125 C-8.54826172 607.92095703 -8.54826172 607.92095703 -9 609 C-10.48709883 612.43614751 -10.9089424 612.94330376 -14.3125 615.0625 C-18.31771329 616.08077457 -20.99532211 615.89900932 -25 615 C-24.34 615.33 -23.68 615.66 -23 616 C-23.66 617.65 -24.32 619.3 -25 621 C-27.31 621 -29.62 621 -32 621 C-32 623.64 -32 626.28 -32 629 C-32.33 628.34 -32.66 627.68 -33 627 C-33.62044189 627.01571045 -34.24088379 627.0314209 -34.88012695 627.04760742 C-37.69082528 627.10996214 -40.50137812 627.14899148 -43.3125 627.1875 C-44.77719727 627.22520508 -44.77719727 627.22520508 -46.27148438 627.26367188 C-47.20927734 627.27333984 -48.14707031 627.28300781 -49.11328125 627.29296875 C-49.97735596 627.3086792 -50.84143066 627.32438965 -51.73168945 627.34057617 C-54 627 -54 627 -55.80541992 625.66918945 C-57 624 -57 624 -57 621 C-61.29 620.67 -65.58 620.34 -70 620 C-71 615 -71 615 -70 613 C-71.32 613 -72.64 613 -74 613 C-76.451644 611.09316578 -76.99328314 610.02015057 -78 607 C-80.73959503 605.00246829 -80.73959503 605.00246829 -83.0625 604.25 C-85 603 -85 603 -85.875 600 C-86.24625 599.01 -86.6175 598.02 -87 597 C-89.97503122 595.84164327 -89.97503122 595.84164327 -93 595 C-95 592 -95 592 -95 590 C-96.65 589.67 -98.3 589.34 -100 589 C-100 588.34 -100 587.68 -100 587 C-100.66 587 -101.32 587 -102 587 C-102.73080266 585.02253397 -103.39421747 583.01927511 -104 581 C-103.67 580.34 -103.34 579.68 -103 579 C-104.98 579 -106.96 579 -109 579 C-109.33 579.66 -109.66 580.32 -110 581 C-110 579.68 -110 578.36 -110 577 C-110.93283296 574.79932579 -110.93283296 574.79932579 -112 573 C-112.78375 573.061875 -113.5675 573.12375 -114.375 573.1875 C-115.24125 573.125625 -116.1075 573.06375 -117 573 C-119.1519437 569.77208445 -119.20086443 568.71599191 -119 565 C-120.32 565 -121.64 565 -123 565 C-126 561.78571429 -126 561.78571429 -126 559 C-127.33804687 558.97873047 -127.33804687 558.97873047 -128.703125 558.95703125 C-129.87359375 558.90933594 -131.0440625 558.86164062 -132.25 558.8125 C-133.99023438 558.76029297 -133.99023438 558.76029297 -135.765625 558.70703125 C-139 558 -139 558 -141.4375 555.625 C-143 553 -143 553 -142.75 550.1875 C-142.5025 549.465625 -142.255 548.74375 -142 548 C-143.423125 548.061875 -143.423125 548.061875 -144.875 548.125 C-148 548 -148 548 -150 546 C-150.625 543.875 -150.625 543.875 -151 542 C-152.24716797 541.99613281 -152.24716797 541.99613281 -153.51953125 541.9921875 C-156.77941403 541.87617744 -159.81088707 541.69789452 -163 541 C-163.474375 540.01 -163.94875 539.02 -164.4375 538 C-165.2109375 536.515 -165.2109375 536.515 -166 535 C-169.38554308 534.33799748 -172.620019 534.1861534 -176.06640625 534.10546875 C-179 534 -179 534 -181 533 C-181.59355614 530.35139573 -181.74209269 527.70802678 -182 525 C-186.62 525 -191.24 525 -196 525 C-198 521 -198 521 -198 517 C-198.99 517.33 -199.98 517.66 -201 518 C-203.63772577 518.12248619 -206.23745795 518.18512384 -208.875 518.1875 C-209.58269531 518.19974609 -210.29039062 518.21199219 -211.01953125 518.22460938 C-215.13432929 518.23610322 -218.30160538 517.8346938 -222 516 C-221.49396008 513.83125748 -221.00016187 512.00032373 -220 510 C-232.87 510 -245.74 510 -259 510 C-259.66 508.68 -260.32 507.36 -261 506 C-260.67 505.34 -260.34 504.68 -260 504 C-268.10446577 503.95279233 -276.20887023 503.91769742 -284.31344128 503.89637566 C-288.08034956 503.88612098 -291.84716109 503.87231716 -295.61401367 503.84912109 C-315.51392331 503.7297717 -335.16177517 504.29223015 -355 506 C-355.33 507.32 -355.66 508.64 -356 510 C-366.23 510 -376.46 510 -387 510 C-386.67 511.98 -386.34 513.96 -386 516 C-388.88609027 517.64054442 -390.94488762 518.24936376 -394.2578125 518.23046875 C-395.04800781 518.22853516 -395.83820313 518.22660156 -396.65234375 518.22460938 C-397.46832031 518.21236328 -398.28429687 518.20011719 -399.125 518.1875 C-399.94871094 518.18685547 -400.77242187 518.18621094 -401.62109375 518.18554688 C-407.71872404 518.14063798 -407.71872404 518.14063798 -410 517 C-410 519.97 -410 522.94 -410 526 C-411.03125 525.835 -412.0625 525.67 -413.125 525.5 C-416.48244326 525.06678152 -419.62336157 524.91764297 -423 525 C-423.33 525.66 -423.66 526.32 -424 527 C-424.99 527 -425.98 527 -427 527 C-427 527.99 -427 528.98 -427 530 C-426.34 530 -425.68 530 -425 530 C-425 530.99 -425 531.98 -425 533 C-426.9375 533.5625 -426.9375 533.5625 -429 534 C-429.33 533.67 -429.66 533.34 -430 533 C-432.05396726 533.40929986 -432.05396726 533.40929986 -434 534 C-434.144375 534.598125 -434.28875 535.19625 -434.4375 535.8125 C-434.8872439 537.56150404 -435.42892341 539.28677023 -436 541 C-436.91338135 541.30341309 -437.8267627 541.60682617 -438.76782227 541.91943359 C-442.42765826 543.14297269 -444.03130175 544.55415949 -446.71484375 547.2890625 C-447.56626953 548.14886719 -448.41769531 549.00867188 -449.29492188 549.89453125 C-450.16697266 550.79558594 -451.03902344 551.69664062 -451.9375 552.625 C-452.80568359 553.50285156 -453.67386719 554.38070312 -454.56835938 555.28515625 C-460.36637126 561.18396502 -465.99256496 567.19647922 -471.125 573.6875 C-473.26271453 576.32401458 -475.50328636 578.70039533 -478 581 C-478.66 581 -479.32 581 -480 581 C-480.268125 581.804375 -480.53625 582.60875 -480.8125 583.4375 C-481.204375 584.283125 -481.59625 585.12875 -482 586 C-482.99 586.33 -483.98 586.66 -485 587 C-485.69202535 588.32034963 -486.35423059 589.65642116 -487 591 C-488.31491195 592.53452726 -489.67451705 594.03123498 -491.0625 595.5 C-504.51332834 610.24004512 -514.44632363 627.0776586 -523 645 C-523.93313539 646.93511693 -524.86676056 648.86999772 -525.80078125 650.8046875 C-533.24663264 666.01982225 -533.24663264 666.01982225 -539.8125 681.625 C-541.21296497 685.17248129 -542.73819521 688.63528291 -544.37133789 692.08203125 C-545.27666004 693.99379794 -546.16650382 695.91224813 -547.0546875 697.83203125 C-548.04154101 699.96479344 -549.04235187 702.08575394 -550.08300781 704.19287109 C-556.0541017 716.30543687 -558.17931912 726.62319012 -557.92163086 740.14672852 C-558 742 -558 742 -559 744 C-561.32156597 744.40729228 -563.6568787 744.74438677 -566 745 C-566 745.66 -566 746.32 -566 747 C-566.66 747 -567.32 747 -568 747 C-567.34 747.99 -566.68 748.98 -566 750 C-565.67 750 -565.34 750 -565 750 C-565 782.67 -565 815.34 -565 849 C-565.66 849.33 -566.32 849.66 -567 850 C-567.33 850.99 -567.66 851.98 -568 853 C-566.3603125 852.9071875 -566.3603125 852.9071875 -564.6875 852.8125 C-561 853 -561 853 -559.29556274 854.26490784 C-556.99875139 857.34092974 -557.53764922 861.20216948 -557.5234375 864.90234375 C-557.50006821 866.21350914 -557.50006821 866.21350914 -557.47622681 867.55116272 C-557.42867556 870.34659912 -557.4009463 873.14178663 -557.375 875.9375 C-557.33846288 878.72946517 -557.29776781 881.5212909 -557.25234985 884.31312561 C-557.22521887 886.05037806 -557.20382635 887.7877318 -557.18881226 889.52513123 C-557.17855011 890.3159761 -557.16828796 891.10682098 -557.15771484 891.92163086 C-557.14797134 892.96062782 -557.14797134 892.96062782 -557.13803101 894.02061462 C-556.98885599 896.1598068 -556.72161315 897.9768316 -556 900 C-553.50965614 901.29660434 -553.50965614 901.29660434 -551 902 C-550.67 905.3 -550.34 908.6 -550 912 C-549.01 911.67 -548.02 911.34 -547 911 C-546.67 912.32 -546.34 913.64 -546 915 C-545.34 915 -544.68 915 -544 915 C-543.86722656 915.78246094 -543.73445313 916.56492187 -543.59765625 917.37109375 C-543.42105469 918.38300781 -543.24445313 919.39492187 -543.0625 920.4375 C-542.80146484 921.95150391 -542.80146484 921.95150391 -542.53515625 923.49609375 C-542.25248903 925.9287438 -542.25248903 925.9287438 -541 927 C-540.75738335 929.25543624 -540.61667867 931.50945523 -540.4765625 933.7734375 C-539.90408035 936.44814919 -539.14438806 937.34343481 -537 939 C-536.01 939.33 -535.02 939.66 -534 940 C-534.020625 940.63164063 -534.04125 941.26328125 -534.0625 941.9140625 C-533.8778608 949.92278771 -531.12689564 955.12516218 -527.0078125 961.73828125 C-525 965 -525 965 -523.4296875 968.35546875 C-522.22468207 971.30518716 -522.22468207 971.30518716 -519 972 C-517 975 -517 975 -516.3125 978 C-515.08025912 982.69854451 -512.32659822 986.44935394 -509.65625 990.44921875 C-508.26515589 992.59163491 -507.08156759 994.69085319 -506 997 C-505.34 997 -504.68 997 -504 997 C-503.34 998.98 -502.68 1000.96 -502 1003 C-501.401875 1002.814375 -500.80375 1002.62875 -500.1875 1002.4375 C-498 1002 -498 1002 -495 1003 C-494.95101563 1003.75925781 -494.90203125 1004.51851562 -494.8515625 1005.30078125 C-494.73941406 1006.79158203 -494.73941406 1006.79158203 -494.625 1008.3125 C-494.55539062 1009.29863281 -494.48578125 1010.28476563 -494.4140625 1011.30078125 C-494.16134528 1014.21528433 -494.16134528 1014.21528433 -492 1017 C-490.68 1016.67 -489.36 1016.34 -488 1016 C-488 1018.97 -488 1021.94 -488 1025 C-483.71 1025 -479.42 1025 -475 1025 C-475 1025.66 -475 1026.32 -475 1027 C-474.34 1027 -473.68 1027 -473 1027 C-472.67 1029.64 -472.34 1032.28 -472 1035 C-470.02 1034.67 -468.04 1034.34 -466 1034 C-466 1036.64 -466 1039.28 -466 1042 C-464.3603125 1041.938125 -464.3603125 1041.938125 -462.6875 1041.875 C-459 1042 -459 1042 -456 1044 C-456.33 1045.32 -456.66 1046.64 -457 1048 C-456.09636719 1048.02578125 -455.19273437 1048.0515625 -454.26171875 1048.078125 C-453.08222656 1048.13484375 -451.90273438 1048.1915625 -450.6875 1048.25 C-448.92986328 1048.31960938 -448.92986328 1048.31960938 -447.13671875 1048.390625 C-444 1049 -444 1049 -442.08203125 1050.859375 C-441 1053 -441 1053 -441 1056 C-438.9254644 1057.2236068 -438.9254644 1057.2236068 -436 1057 C-436 1056.67 -436 1056.34 -436 1056 C-434.741875 1055.979375 -433.48375 1055.95875 -432.1875 1055.9375 C-431.47980469 1055.92589844 -430.77210938 1055.91429687 -430.04296875 1055.90234375 C-428 1056 -428 1056 -425 1057 C-425 1057.99 -425 1058.98 -425 1060 C-425.66 1060 -426.32 1060 -427 1060 C-427 1060.99 -427 1061.98 -427 1063 C-426.01 1063.33 -425.02 1063.66 -424 1064 C-424 1064.33 -424 1064.66 -424 1065 C-422.22925083 1065.02705729 -420.45838289 1065.04642195 -418.6875 1065.0625 C-417.70136719 1065.07410156 -416.71523438 1065.08570313 -415.69921875 1065.09765625 C-412.90036151 1065.12329862 -412.90036151 1065.12329862 -410 1064 C-410 1066.97 -410 1069.94 -410 1073 C-409.34 1072.67 -408.68 1072.34 -408 1072 C-405.03048651 1071.87505961 -402.09467605 1071.81482369 -399.125 1071.8125 C-398.30902344 1071.80025391 -397.49304688 1071.78800781 -396.65234375 1071.77539062 C-395.46705078 1071.77249023 -395.46705078 1071.77249023 -394.2578125 1071.76953125 C-393.5373877 1071.76542236 -392.81696289 1071.76131348 -392.07470703 1071.75708008 C-389.69561979 1072.03563878 -388.06978145 1072.82347118 -386 1074 C-386.33 1075.98 -386.66 1077.96 -387 1080 C-374.46 1080 -361.92 1080 -349 1080 C-347 1084 -347 1084 -347 1086 C-346.34 1086.66 -345.68 1087.32 -345 1088 C-344.34 1088 -343.68 1088 -343 1088 C-343 1087.67 -343 1087.34 -343 1087 C-315.61 1087 -288.22 1087 -260 1087 C-260 1087.33 -260 1087.66 -260 1088 C-247.27598173 1088.74817091 -234.59923745 1089.16153542 -221.85302734 1089.13037109 C-219.23659557 1089.12497234 -216.62033318 1089.13038358 -214.00390625 1089.13671875 C-203.62827555 1089.14036649 -193.34680266 1088.79548973 -183 1088 C-183 1087.67 -183 1087.34 -183 1087 C-175.08 1086.67 -167.16 1086.34 -159 1086 C-158.67 1085.01 -158.34 1084.02 -158 1083 C-154.41420432 1080.30638302 -151.70015645 1079.60695605 -147.26171875 1079.48828125 C-146.19501953 1079.45283203 -145.12832031 1079.41738281 -144.02929688 1079.38085938 C-142.92650391 1079.35830078 -141.82371094 1079.33574219 -140.6875 1079.3125 C-139.00430664 1079.26125977 -139.00430664 1079.26125977 -137.28710938 1079.20898438 C-134.52483938 1079.12670399 -131.76287887 1079.05748719 -129 1079 C-129.33 1077.68 -129.66 1076.36 -130 1075 C-124.73276905 1071.75272655 -120.60050061 1071.62665907 -114.625 1071.8125 C-113.79355469 1071.82603516 -112.96210937 1071.83957031 -112.10546875 1071.85351562 C-110.07002934 1071.88860941 -108.03492709 1071.94240772 -106 1072 C-106 1071.34 -106 1070.68 -106 1070 C-105.0409375 1069.814375 -105.0409375 1069.814375 -104.0625 1069.625 C-103.0415625 1069.315625 -103.0415625 1069.315625 -102 1069 C-101.67 1068.34 -101.34 1067.68 -101 1067 C-101.66 1067 -102.32 1067 -103 1067 C-103 1066.34 -103 1065.68 -103 1065 C-99.6888987 1063.89629957 -97.75251051 1064.07326359 -94.3125 1064.4375 C-92.82169922 1064.59025391 -92.82169922 1064.59025391 -91.30078125 1064.74609375 C-90.16189453 1064.87177734 -90.16189453 1064.87177734 -89 1065 C-89 1064.34 -89 1063.68 -89 1063 C-87.35 1062.67 -85.7 1062.34 -84 1062 C-84.99 1061.34 -85.98 1060.68 -87 1060 C-87 1059.01 -87 1058.02 -87 1057 C-85.92878906 1056.87882812 -84.85757813 1056.75765625 -83.75390625 1056.6328125 C-82.35671248 1056.46402399 -80.95958009 1056.29472687 -79.5625 1056.125 C-78.85544922 1056.04636719 -78.14839844 1055.96773437 -77.41992188 1055.88671875 C-75.60326568 1055.66072324 -73.79937478 1055.33699273 -72 1055 C-71.67 1054.34 -71.34 1053.68 -71 1053 C-69.33333333 1052.33333333 -67.66666667 1051.66666667 -66 1051 C-65.67 1050.34 -65.34 1049.68 -65 1049 C-62.36 1049 -59.72 1049 -57 1049 C-56.896875 1048.401875 -56.79375 1047.80375 -56.6875 1047.1875 C-55.85499035 1044.53860567 -55.2810942 1043.59676594 -53 1042 C-49.3125 1041.3125 -49.3125 1041.3125 -46 1041 C-45.731875 1040.21625 -45.46375 1039.4325 -45.1875 1038.625 C-44 1036 -44 1036 -41 1034 C-39.68 1034 -38.36 1034 -37 1034 C-37 1033.34 -37 1032.68 -37 1032 C-35.35 1031.67 -33.7 1031.34 -32 1031 C-31.92652344 1030.37609375 -31.85304688 1029.7521875 -31.77734375 1029.109375 C-31 1027 -31 1027 -29.00390625 1025.953125 C-28.19824219 1025.72109375 -27.39257812 1025.4890625 -26.5625 1025.25 C-25.75941406 1025.00765625 -24.95632813 1024.7653125 -24.12890625 1024.515625 C-22 1024 -22 1024 -20 1024 C-19.938125 1023.0925 -19.87625 1022.185 -19.8125 1021.25 C-18.80536608 1017.22146431 -17.28413526 1016.38099806 -14 1014 C-13.67 1013.01 -13.34 1012.02 -13 1011 C-12.01 1010.67 -11.02 1010.34 -10 1010 C-9.67 1009.01 -9.34 1008.02 -9 1007 C-8.34 1007 -7.68 1007 -7 1007 C-6.34 1005.02 -5.68 1003.04 -5 1001 C-4.01 1001 -3.02 1001 -2 1001 C-2 997.04 -2 993.08 -2 989 C-1.67 989 -1.34 989 -1 989 C0.71318772 981.29065524 0.71318772 972.70934476 -1 965 C-1.33 965 -1.66 965 -2 965 C-2.33 958.73 -2.66 952.46 -3 946 C-4.32 945.67 -5.64 945.34 -7 945 C-9 943 -9 943 -9.125 939.375 C-9.08375 938.26125 -9.0425 937.1475 -9 936 C-9.94875 935.9175 -10.8975 935.835 -11.875 935.75 C-15 935 -15 935 -16.4375 933.0625 C-17 931 -17 931 -16 929 C-17.32 929 -18.64 929 -20 929 C-20.66 928.34 -21.32 927.68 -22 927 C-23.155 926.731875 -24.31 926.46375 -25.5 926.1875 C-27.2325 925.5996875 -27.2325 925.5996875 -29 925 C-29.70211894 923.34795544 -30.36971413 921.68076231 -31 920 C-33.96260526 918.76242123 -33.96260526 918.76242123 -37 918 C-39 916 -39 916 -40 914 C-39.67 913.34 -39.34 912.68 -39 912 C-41.97 911.67 -44.94 911.34 -48 911 C-48 910.34 -48 909.68 -48 909 C-49.1446875 908.87625 -49.1446875 908.87625 -50.3125 908.75 C-53.53380482 907.85103121 -54.32365121 906.82332427 -56 904 C-56 903.67 -56 903.34 -56 903 C-62.6 902.67 -69.2 902.34 -76 902 C-76 901.01 -76 900.02 -76 899 C-76.804375 898.87625 -77.60875 898.7525 -78.4375 898.625 C-79.283125 898.41875 -80.12875 898.2125 -81 898 C-81.33 897.34 -81.66 896.68 -82 896 C-86.59253561 894.89841943 -91.16597385 894.85366504 -95.86328125 894.8671875 C-96.98865547 894.86575241 -96.98865547 894.86575241 -98.13676453 894.86428833 C-99.72439661 894.86361009 -101.31203151 894.86543949 -102.8996582 894.86962891 C-105.2671577 894.87489907 -107.63446014 894.86971533 -110.00195312 894.86328125 C-117.85659541 894.85856775 -125.6973882 894.99218163 -133.54296875 895.3828125 C-134.62569817 895.4283577 -134.62569817 895.4283577 -135.7303009 895.474823 C-139.81349573 895.61673581 -139.81349573 895.61673581 -143 898 C-145.65537372 898.56520003 -148.29144713 898.73788198 -151 899 C-151.33 899.99 -151.66 900.98 -152 902 C-162.56 902.33 -173.12 902.66 -184 903 C-183.67 903.66 -183.34 904.32 -183 905 C-189.6 905 -196.2 905 -203 905 C-203.33 905.99 -203.66 906.98 -204 908 C-207.13871188 909.56935594 -209.53855822 909.35201103 -213 909 C-216.189662 906.4482704 -218.62223491 903.88279251 -220 900 C-220 898.68 -220 897.36 -220 896 C-219.01 896.33 -218.02 896.66 -217 897 C-217 897.66 -217 898.32 -217 899 C-216.34 899 -215.68 899 -215 899 C-215 897.02 -215 895.04 -215 893 C-214.67 893 -214.34 893 -214 893 C-213.67 890.69 -213.34 888.38 -213 886 C-208.8794254 884.00214565 -205.54805635 883.82164485 -201 884 C-200.938125 883.05125 -200.87625 882.1025 -200.8125 881.125 C-200.544375 880.09375 -200.27625 879.0625 -200 878 C-197.5 876.75 -197.5 876.75 -195 876 C-194.67 875.34 -194.34 874.68 -194 874 C-193.01 874 -192.02 874 -191 874 C-191.33 872.35 -191.66 870.7 -192 869 C-188.77208445 866.8480563 -187.71599191 866.79913557 -184 867 C-184.144375 866.113125 -184.28875 865.22625 -184.4375 864.3125 C-184 861 -184 861 -182.546875 859.69921875 C-181.29069406 858.88903482 -180.0274067 858.08978007 -178.7578125 857.30078125 C-176.15162451 855.37220213 -175.16949142 852.95812535 -174 850 C-173.01 850 -172.02 850 -171 850 C-170.67 849.01 -170.34 848.02 -170 847 C-169.01 847 -168.02 847 -167 847 C-166.814375 845.8553125 -166.814375 845.8553125 -166.625 844.6875 C-166 842 -166 842 -164 839 C-162.68 839 -161.36 839 -160 839 C-160 838.01 -160 837.02 -160 836 C-159.01 836 -158.02 836 -157 836 C-157 834.02 -157 832.04 -157 830 C-154.69 829.67 -152.38 829.34 -150 829 C-149.67 826.69 -149.34 824.38 -149 822 C-147.02 821.34 -145.04 820.68 -143 820 C-143 819.67 -143 819.34 -143 819 C-138.71 818.67 -134.42 818.34 -130 818 C-131.32 817.34 -132.64 816.68 -134 816 C-134 815.34 -134 814.68 -134 814 C-125.27048212 809.63524106 -109.98284437 811.78702224 -100.2265625 811.68359375 C-98.56504881 811.66296159 -96.90353962 811.6419638 -95.24203491 811.62062073 C-90.91857609 811.56604523 -86.59507515 811.51635806 -82.27154541 811.46777344 C-77.83984738 811.41707991 -73.40820873 811.36164648 -68.9765625 811.30664062 C-60.31775889 811.19985125 -51.65890483 811.09823849 -43 811 C-45.97 810.34 -48.94 809.68 -52 809 C-52 807.35 -52 805.7 -52 804 C-36.39135163 803.93237433 -20.79114372 804.10544632 -5.18481445 804.37231445 C-1.28016737 804.43804428 2.62454658 804.49740017 6.52929688 804.55664062 C9.04427734 804.59857013 11.55925159 804.6408742 14.07421875 804.68359375 C15.22540695 804.70030624 16.37659515 804.71701874 17.56266785 804.73423767 C24.0902372 804.85339002 30.5166478 805.22328095 37 806 C37 805.34 37 804.68 37 804 C39.31 803.67 41.62 803.34 44 803 C44 804.32 44 805.64 44 807 C43.34 807 42.68 807 42 807 C42 807.66 42 808.32 42 809 C41.34 809.66 40.68 810.32 40 811 C40.79583496 811.01981934 41.59166992 811.03963867 42.41162109 811.06005859 C46.06637638 811.15613858 49.7206238 811.26547824 53.375 811.375 C54.62667969 811.4059375 55.87835937 811.436875 57.16796875 811.46875 C64.31123952 811.69314594 71.05508595 812.27542403 78 814 C78 814.66 78 815.32 78 816 C77.195625 816.12375 76.39125 816.2475 75.5625 816.375 C74.716875 816.58125 73.87125 816.7875 73 817 C72.67 817.66 72.34 818.32 72 819 C73.57201172 818.96519531 73.57201172 818.96519531 75.17578125 818.9296875 C76.55468037 818.91092697 77.9335872 818.89272707 79.3125 818.875 C80.00279297 818.85824219 80.69308594 818.84148438 81.40429688 818.82421875 C85.17135396 818.78782206 86.78431704 818.85621136 90 821 C91.175625 821.268125 92.35125 821.53625 93.5625 821.8125 C95.2640625 822.4003125 95.2640625 822.4003125 97 823 C98.21484375 825.57421875 98.21484375 825.57421875 99 828 C99.83144531 828.06058594 100.66289063 828.12117187 101.51953125 828.18359375 C102.60621094 828.26738281 103.69289063 828.35117187 104.8125 828.4375 C105.89144531 828.51871094 106.97039063 828.59992187 108.08203125 828.68359375 C111 829 111 829 114 830 C114 830.66 114 831.32 114 832 C114.99 832 115.98 832 117 832 C116.67 833.32 116.34 834.64 116 836 C117.98 836 119.96 836 122 836 C122 836.66 122 837.32 122 838 C123.98 838.66 125.96 839.32 128 840 C128 840.99 128 841.98 128 843 C129.36125 842.814375 129.36125 842.814375 130.75 842.625 C131.8225 842.74875 132.895 842.8725 134 843 C136.125 845.9375 136.125 845.9375 138 849 C140.12119128 849.95231597 140.12119128 849.95231597 142 850 C142 850.99 142 851.98 142 853 C142.99 853 143.98 853 145 853 C145.33 853.99 145.66 854.98 146 856 C148.41527905 859.17799875 151.26992544 859.86475992 155 861 C156 862 156 862 156.0625 864.5625 C156.041875 865.366875 156.02125 866.17125 156 867 C156.99 867 157.98 867 159 867 C159.33 867.99 159.66 868.98 160 870 C161.63260714 871.37482707 163.30225062 872.70647667 165 874 C165.495 874.53625 165.99 875.0725 166.5 875.625 C168.02307143 877.19985194 168.02307143 877.19985194 170.625 877.9375 C173 879 173 879 173.8125 880.6875 C174.06481876 883.79943138 174.06000419 886.87978227 174 890 C174.66 890 175.32 890 176 890 C176.66 891.32 177.32 892.64 178 894 C179.32 893.67 180.64 893.34 182 893 C182.86419223 895.59257669 183.17580932 897.34037707 183.31640625 900.01171875 C183.35830078 900.76904297 183.40019531 901.52636719 183.44335938 902.30664062 C183.50233398 903.48516602 183.50233398 903.48516602 183.5625 904.6875 C183.60568359 905.48478516 183.64886719 906.28207031 183.69335938 907.10351562 C183.79927368 909.06881447 183.90012551 911.03438496 184 913 C185.2065625 913.185625 185.2065625 913.185625 186.4375 913.375 C187.283125 913.58125 188.12875 913.7875 189 914 C190.62641763 917.25283526 190.38635968 920.85610066 190.5625 924.4375 C190.6049585 925.24558105 190.64741699 926.05366211 190.69116211 926.88623047 C190.99084413 932.92690338 191.1198976 938.95183207 191 945 C191.66 945 192.32 945 193 945 C193.66 949.62 194.32 954.24 195 959 C195.66 959 196.32 959 197 959 C197 978.8 197 998.6 197 1019 C197.66 1019 198.32 1019 199 1019 C199 998.87 199 978.74 199 958 C199.99 958 200.98 958 202 958 C202 981.76 202 1005.52 202 1030 C201.01 1030 200.02 1030 199 1030 C199 1032.31 199 1034.62 199 1037 C198.01 1037 197.02 1037 196 1037 C195.00359279 1031.27065855 194.92031644 1025.81689987 195 1020 C194.34 1024.29 193.68 1028.58 193 1033 C192.34 1033 191.68 1033 191 1033 C190.98018066 1033.95366455 190.96036133 1034.9073291 190.93994141 1035.88989258 C190.86384986 1039.42922299 190.77513839 1042.96814417 190.68261719 1046.50708008 C190.64434202 1048.03857339 190.60948651 1049.57015615 190.578125 1051.10180664 C190.53244193 1053.3038733 190.47445463 1055.50532496 190.4140625 1057.70703125 C190.40251129 1058.39150833 190.39096008 1059.07598541 190.37905884 1059.78120422 C190.26726256 1063.38460837 190.05605447 1064.9159183 188 1068 C187.34 1068 186.68 1068 186 1068 C186 1067.34 186 1066.68 186 1066 C185.01 1066 184.02 1066 183 1066 C183.01160156 1067.29035156 183.02320313 1068.58070312 183.03515625 1069.91015625 C183.0445412 1071.62760271 183.05364064 1073.34505075 183.0625 1075.0625 C183.07087891 1075.91005859 183.07925781 1076.75761719 183.08789062 1077.63085938 C183.10683006 1082.5361722 182.83326345 1087.16444755 182 1092 C180.35 1091.67 178.7 1091.34 177 1091 C176.67 1094.63 176.34 1098.26 176 1102 C175.34 1102 174.68 1102 174 1102 C173.87625 1103.19625 173.7525 1104.3925 173.625 1105.625 C173.17674946 1109.27596813 172.29553163 1112.54524899 171 1116 C169.35 1115.34 167.7 1114.68 166 1114 C166 1117.96 166 1121.92 166 1126 C165.34 1126 164.68 1126 164 1126 C164 1126.66 164 1127.32 164 1128 C162.68 1128.33 161.36 1128.66 160 1129 C159.95101563 1129.78246094 159.90203125 1130.56492187 159.8515625 1131.37109375 C159.73941406 1132.88896484 159.73941406 1132.88896484 159.625 1134.4375 C159.52058594 1135.95150391 159.52058594 1135.95150391 159.4140625 1137.49609375 C159.27742188 1138.32238281 159.14078125 1139.14867187 159 1140 C158.34 1140.33 157.68 1140.66 157 1141 C156.5978125 1141.8971875 156.5978125 1141.8971875 156.1875 1142.8125 C155 1145 155 1145 152.4375 1146.8125 C149.21529188 1149.70422523 149.45797608 1151.8018859 149 1156 C147.10466125 1158.58455285 146.11173483 1158.96275506 143 1160 C142.67 1162.31 142.34 1164.62 142 1167 C141.34 1167 140.68 1167 140 1167 C139.67 1167.99 139.34 1168.98 139 1170 C138.01 1170 137.02 1170 136 1170 C135.855625 1171.299375 135.71125 1172.59875 135.5625 1173.9375 C135.125 1177.875 135.125 1177.875 134 1179 C132.00041636 1179.04080783 129.99954746 1179.04254356 128 1179 C128.144375 1179.86625 128.28875 1180.7325 128.4375 1181.625 C127.93587233 1185.49469918 127.43520554 1185.86975827 124.5625 1188.25 C123.92441406 1188.72953125 123.28632812 1189.2090625 122.62890625 1189.703125 C120.86363448 1190.92174333 120.86363448 1190.92174333 120 1193 C119.34 1193 118.68 1193 118 1193 C117.896875 1193.598125 117.79375 1194.19625 117.6875 1194.8125 C116.89363064 1197.33844795 116.04427591 1198.34885407 114 1200 C113.01 1200.33 112.02 1200.66 111 1201 C110.26676204 1203.01508358 110.26676204 1203.01508358 110 1205 C109.34 1205 108.68 1205 108 1205 C108 1205.66 108 1206.32 108 1207 C107.01 1207.33 106.02 1207.66 105 1208 C104.67 1208.99 104.34 1209.98 104 1211 C103.01 1211 102.02 1211 101 1211 C101 1212.32 101 1213.64 101 1215 C100.34 1215 99.68 1215 99 1215 C99 1215.66 99 1216.32 99 1217 C98.01 1217.33 97.02 1217.66 96 1218 C95.67 1218.66 95.34 1219.32 95 1220 C95.66 1220 96.32 1220 97 1220 C97 1220.66 97 1221.32 97 1222 C96.34 1222 95.68 1222 95 1222 C95 1222.99 95 1223.98 95 1225 C92.69 1225 90.38 1225 88 1225 C87.34 1226.65 86.68 1228.3 86 1230 C86.66 1230 87.32 1230 88 1230 C87.67 1230.99 87.34 1231.98 87 1233 C85.125 1233.5625 85.125 1233.5625 83 1234 C79.77595022 1235.66954819 79.77595022 1235.66954819 79.3125 1238.625 C79.209375 1239.40875 79.10625 1240.1925 79 1241 C76 1242 76 1242 73 1242 C71.9739266 1243.31337396 70.97272675 1244.64664105 70 1246 C69.34 1246 68.68 1246 68 1246 C68 1246.66 68 1247.32 68 1248 C67.1028125 1248.061875 67.1028125 1248.061875 66.1875 1248.125 C63.65657234 1248.85640052 63.65657234 1248.85640052 62.5 1252 C62.005 1252.99 61.51 1253.98 61 1255 C58.875 1255.6875 58.875 1255.6875 57 1256 C56.67 1256.99 56.34 1257.98 56 1259 C55.34 1259 54.68 1259 54 1259 C53.34 1260.32 52.68 1261.64 52 1263 C51.34 1263 50.68 1263 50 1263 C50 1263.66 50 1264.32 50 1265 C48.68 1265.33 47.36 1265.66 46 1266 C46 1267.32 46 1268.64 46 1270 C45.34 1270 44.68 1270 44 1270 C44 1270.99 44 1271.98 44 1273 C41.69 1273.33 39.38 1273.66 37 1274 C36.855625 1274.928125 36.71125 1275.85625 36.5625 1276.8125 C35 1280 35 1280 32.8984375 1280.99609375 C31.27670738 1281.49290948 29.64172987 1281.94862422 27.99609375 1282.359375 C27.00802734 1282.67648437 27.00802734 1282.67648437 26 1283 C25.67 1283.66 25.34 1284.32 25 1285 C25.66 1285 26.32 1285 27 1285 C26.67 1286.32 26.34 1287.64 26 1289 C22.7 1289.33 19.4 1289.66 16 1290 C15.67 1291.32 15.34 1292.64 15 1294 C12.23776722 1296.76223278 9.79293383 1296.57856291 6 1297 C6 1297.99 6 1298.98 6 1300 C5.01 1300 4.02 1300 3 1300 C3 1300.99 3 1301.98 3 1303 C0.69 1303.33 -1.62 1303.66 -4 1304 C-4.226875 1304.78375 -4.45375 1305.5675 -4.6875 1306.375 C-6 1309 -6 1309 -8.25 1310.3125 C-11.26577013 1311.06644253 -13.90311028 1311.14404138 -17 1311 C-17 1311.66 -17 1312.32 -17 1313 C-17.5775 1313.226875 -18.155 1313.45375 -18.75 1313.6875 C-21.2081437 1314.87468449 -21.2081437 1314.87468449 -22.5 1317.5625 C-26.5417052 1321.50316257 -31.55923268 1320.90589868 -37 1321 C-36.34 1321.66 -35.68 1322.32 -35 1323 C-35 1323.99 -35 1324.98 -35 1326 C-40.0423991 1328.35059206 -44.74837689 1328.41024112 -50.234375 1328.65625 C-51.14703125 1328.7696875 -52.0596875 1328.883125 -53 1329 C-53.33 1329.66 -53.66 1330.32 -54 1331 C-54.66 1331 -55.32 1331 -56 1331 C-56.33 1332.32 -56.66 1333.64 -57 1335 C-61.29 1335 -65.58 1335 -70 1335 C-70 1335.66 -70 1336.32 -70 1337 C-72.64 1337.33 -75.28 1337.66 -78 1338 C-78 1338.66 -78 1339.32 -78 1340 C-76.35 1340 -74.7 1340 -73 1340 C-73 1340.99 -73 1341.98 -73 1343 C-79.625 1344.125 -79.625 1344.125 -83 1343 C-83 1343.66 -83 1344.32 -83 1345 C-83.556875 1344.98839844 -84.11375 1344.97679687 -84.6875 1344.96484375 C-89.89297901 1344.90329248 -94.86762096 1345.08350374 -100 1346 C-100.33 1346.66 -100.66 1347.32 -101 1348 C-102.33333333 1348.33333333 -103.66666667 1348.66666667 -105 1349 C-105.33 1349.66 -105.66 1350.32 -106 1351 C-112.6 1351.33 -119.2 1351.66 -126 1352 C-126.33 1352.99 -126.66 1353.98 -127 1355 C-128.32303717 1355.3721042 -129.65737935 1355.70630173 -131 1356 C-131.33 1356.66 -131.66 1357.32 -132 1358 C-139.92 1358.33 -147.84 1358.66 -156 1359 C-155.67 1359.99 -155.34 1360.98 -155 1362 C-155.99 1362 -156.98 1362 -158 1362 C-158 1362.66 -158 1363.32 -158 1364 C-162.86051596 1366.59227518 -167.65271133 1366.18689553 -173 1366 C-173 1366.66 -173 1367.32 -173 1368 C-181.58 1368.33 -190.16 1368.66 -199 1369 C-199 1369.99 -199 1370.98 -199 1372 C-201.88834003 1374.10770759 -203.38462395 1375 -207 1375 C-207 1375.66 -207 1376.32 -207 1377 C-227.02727042 1377.07002445 -247.05451606 1377.12295593 -267.08188343 1377.15543652 C-276.38055827 1377.17091744 -285.67915713 1377.19203031 -294.9777832 1377.22631836 C-303.08074245 1377.25618327 -311.18364667 1377.27556608 -319.28665942 1377.28226548 C-323.57872144 1377.28618269 -327.87062605 1377.29541396 -332.16263771 1377.31719017 C-336.20010217 1377.33750948 -340.23734393 1377.3438431 -344.27485466 1377.33932304 C-345.75877211 1377.3401503 -347.2426968 1377.34614314 -348.72657013 1377.35761642 C-350.74859264 1377.37248749 -352.77073388 1377.36717863 -354.7928009 1377.36076355 C-356.49212627 1377.36491162 -356.49212627 1377.36491162 -358.22578144 1377.36914349 C-361.34239596 1376.95444006 -362.05971107 1376.36239036 -364 1374 C-366.04100238 1373.42982192 -366.04100238 1373.42982192 -368.1875 1373.3125 C-369.445625 1373.209375 -370.70375 1373.10625 -372 1373 C-372 1372.34 -372 1371.68 -372 1371 C-371.34 1371 -370.68 1371 -370 1371 C-370 1370.34 -370 1369.68 -370 1369 C-370.90355225 1368.97494385 -371.80710449 1368.9498877 -372.73803711 1368.92407227 C-376.0796428 1368.82912683 -379.42106252 1368.72988379 -382.76245117 1368.62768555 C-384.2106424 1368.5842837 -385.65888654 1368.54261256 -387.10717773 1368.50268555 C-389.18489559 1368.44510938 -391.26234573 1368.38137972 -393.33984375 1368.31640625 C-394.59144287 1368.27974854 -395.84304199 1368.24309082 -397.13256836 1368.20532227 C-400 1368 -400 1368 -401 1367 C-404.42102333 1366.55361647 -407.84047288 1366.17705809 -411.2734375 1365.83789062 C-413.19083806 1365.6250384 -415.0974091 1365.31918466 -417 1365 C-417.33 1364.34 -417.66 1363.68 -418 1363 C-420.02463255 1362.34786708 -420.02463255 1362.34786708 -422 1362 C-422 1361.01 -422 1360.02 -422 1359 C-431.57 1358.67 -441.14 1358.34 -451 1358 C-451.33 1357.01 -451.66 1356.02 -452 1355 C-452.721875 1354.87625 -453.44375 1354.7525 -454.1875 1354.625 C-457 1354 -457 1354 -459.34887695 1352.98242188 C-462.14314151 1351.94695631 -464.26337268 1351.71907434 -467.23046875 1351.65625 C-468.19791016 1351.62660156 -469.16535156 1351.59695313 -470.16210938 1351.56640625 C-472.19074958 1351.52187832 -474.21939551 1351.47761044 -476.24804688 1351.43359375 C-477.21162109 1351.40394531 -478.17519531 1351.37429688 -479.16796875 1351.34375 C-480.04735107 1351.32505859 -480.9267334 1351.30636719 -481.83276367 1351.28710938 C-484 1351 -484 1351 -486 1349 C-488.06874034 1348.3574765 -488.06874034 1348.3574765 -490 1348 C-490 1347.01 -490 1346.02 -490 1345 C-490.84183838 1345.01047363 -491.68367676 1345.02094727 -492.55102539 1345.03173828 C-495.70254489 1345.06601515 -498.8539687 1345.09099341 -502.00561523 1345.10986328 C-503.36437118 1345.11986243 -504.72310594 1345.13346624 -506.08178711 1345.15087891 C-508.04531296 1345.17539594 -510.00900201 1345.18546962 -511.97265625 1345.1953125 C-513.15093994 1345.20578613 -514.32922363 1345.21625977 -515.54321289 1345.22705078 C-519.35125693 1344.97692853 -522.38113496 1344.16789726 -526 1343 C-526 1342.01 -526 1341.02 -526 1340 C-524.35 1339.67 -522.7 1339.34 -521 1339 C-521 1338.67 -521 1338.34 -521 1338 C-521.95712891 1337.90912109 -521.95712891 1337.90912109 -522.93359375 1337.81640625 C-524.17302734 1337.69072266 -524.17302734 1337.69072266 -525.4375 1337.5625 C-526.26121094 1337.48128906 -527.08492187 1337.40007812 -527.93359375 1337.31640625 C-530 1337 -530 1337 -531 1336 C-533.07700998 1335.73597331 -535.16269326 1335.5388021 -537.25 1335.375 C-538.38953125 1335.27960938 -539.5290625 1335.18421875 -540.703125 1335.0859375 C-543.69120088 1335.00804927 -546.11593444 1335.27356243 -549 1336 C-549 1335.01 -549 1334.02 -549 1333 C-548.34 1333 -547.68 1333 -547 1333 C-547.495 1332.54625 -547.99 1332.0925 -548.5 1331.625 C-550 1330 -550 1330 -550 1328 C-551.69769531 1328.03480469 -551.69769531 1328.03480469 -553.4296875 1328.0703125 C-554.91145175 1328.08906901 -556.39322312 1328.10726934 -557.875 1328.125 C-558.62136719 1328.14175781 -559.36773438 1328.15851563 -560.13671875 1328.17578125 C-562.09194461 1328.1933959 -564.04742021 1328.10320189 -566 1328 C-568 1326 -568 1326 -568.125 1323.375 C-568.08375 1322.59125 -568.0425 1321.8075 -568 1321 C-569.01320313 1320.94392578 -569.01320313 1320.94392578 -570.046875 1320.88671875 C-570.93890625 1320.82097656 -571.8309375 1320.75523438 -572.75 1320.6875 C-573.63171875 1320.62949219 -574.5134375 1320.57148437 -575.421875 1320.51171875 C-578.37584398 1319.92540066 -579.86001419 1319.10498604 -582 1317 C-582 1316.01 -582 1315.02 -582 1314 C-582.99 1313.67 -583.98 1313.34 -585 1313 C-585 1312.34 -585 1311.68 -585 1311 C-585.61488281 1310.99742188 -586.22976563 1310.99484375 -586.86328125 1310.9921875 C-589.36903413 1310.87229502 -591.58298295 1310.68438834 -594 1310 C-595.6875 1307 -595.6875 1307 -597 1304 C-599.94363898 1303.32882152 -599.94363898 1303.32882152 -603 1303 C-605.375 1301.0625 -605.375 1301.0625 -607 1299 C-607 1298.34 -607 1297.68 -607 1297 C-607.9075 1296.896875 -608.815 1296.79375 -609.75 1296.6875 C-613.04276372 1295.99095383 -614.6405968 1295.3594032 -617 1293 C-617 1292.01 -617 1291.02 -617 1290 C-618.051875 1289.855625 -619.10375 1289.71125 -620.1875 1289.5625 C-623.15460549 1289.12473034 -626.06794366 1288.62195134 -629 1288 C-629 1287.01 -629 1286.02 -629 1285 C-628.34 1285 -627.68 1285 -627 1285 C-627.33 1284.34 -627.66 1283.68 -628 1283 C-628.99 1282.67 -629.98 1282.34 -631 1282 C-631 1281.34 -631 1280.68 -631 1280 C-631.78375 1279.896875 -632.5675 1279.79375 -633.375 1279.6875 C-636 1279 -636 1279 -638 1276 C-638 1275.01 -638 1274.02 -638 1273 C-640.97 1272.67 -643.94 1272.34 -647 1272 C-647.33 1269.69 -647.66 1267.38 -648 1265 C-649.98 1265 -651.96 1265 -654 1265 C-654 1264.34 -654 1263.68 -654 1263 C-655.32 1262.67 -656.64 1262.34 -658 1262 C-658 1261.01 -658 1260.02 -658 1259 C-658.99 1259 -659.98 1259 -661 1259 C-661 1258.01 -661 1257.02 -661 1256 C-661.598125 1255.896875 -662.19625 1255.79375 -662.8125 1255.6875 C-665.33844795 1254.89363064 -666.34885407 1254.04427591 -668 1252 C-668.33 1251.01 -668.66 1250.02 -669 1249 C-669.99 1248.67 -670.98 1248.34 -672 1248 C-672 1247.34 -672 1246.68 -672 1246 C-672.969375 1245.71125 -673.93875 1245.4225 -674.9375 1245.125 C-678 1244 -678 1244 -679 1242 C-681.30965848 1240.94647157 -683.6429774 1239.94280904 -686 1239 C-686 1237.68 -686 1236.36 -686 1235 C-687.92022703 1233.22590192 -687.92022703 1233.22590192 -690 1232 C-690.66 1232.66 -691.32 1233.32 -692 1234 C-694.625 1233.625 -694.625 1233.625 -697 1233 C-697 1230 -697 1230 -695 1228 C-695.33 1227.01 -695.66 1226.02 -696 1225 C-696.78375 1224.9175 -697.5675 1224.835 -698.375 1224.75 C-701 1224 -701 1224 -702.3125 1222.0625 C-703 1220 -703 1220 -703 1218 C-704.32 1217.67 -705.64 1217.34 -707 1217 C-707 1216.01 -707 1215.02 -707 1214 C-707.66 1214 -708.32 1214 -709 1214 C-709.33 1213.01 -709.66 1212.02 -710 1211 C-712.01508358 1210.26676204 -712.01508358 1210.26676204 -714 1210 C-714 1209.34 -714 1208.68 -714 1208 C-714.99 1207.67 -715.98 1207.34 -717 1207 C-718.33333333 1205 -719.66666667 1203 -721 1201 C-721.99 1200.67 -722.98 1200.34 -724 1200 C-724 1199.01 -724 1198.02 -724 1197 C-724.66 1197 -725.32 1197 -726 1197 C-726.33 1196.01 -726.66 1195.02 -727 1194 C-728.65 1194 -730.3 1194 -732 1194 C-732.268125 1192.865625 -732.53625 1191.73125 -732.8125 1190.5625 C-733.204375 1189.386875 -733.59625 1188.21125 -734 1187 C-734.99 1186.67 -735.98 1186.34 -737 1186 C-737 1185.34 -737 1184.68 -737 1184 C-738.32 1184.66 -739.64 1185.32 -741 1186 C-741.33 1184.68 -741.66 1183.36 -742 1182 C-741.34 1182 -740.68 1182 -740 1182 C-740.495 1181.38125 -740.99 1180.7625 -741.5 1180.125 C-743 1178 -743 1178 -743 1176 C-744.65 1176.66 -746.3 1177.32 -748 1178 C-747.938125 1177.236875 -747.87625 1176.47375 -747.8125 1175.6875 C-747.75597109 1172.99550511 -747.75597109 1172.99550511 -749.3125 1171.25 C-751.09146679 1169.79696921 -751.09146679 1169.79696921 -754 1169 C-754.33 1167.02 -754.66 1165.04 -755 1163 C-755.99 1162.67 -756.98 1162.34 -758 1162 C-758 1161.01 -758 1160.02 -758 1159 C-758.99 1159 -759.98 1159 -761 1159 C-761 1158.01 -761 1157.02 -761 1156 C-761.99 1155.67 -762.98 1155.34 -764 1155 C-764 1154.01 -764 1153.02 -764 1152 C-764.66 1152 -765.32 1152 -766 1152 C-766.99 1150.515 -766.99 1150.515 -768 1149 C-768.99 1148.67 -769.98 1148.34 -771 1148 C-771.73080266 1146.02253397 -772.39421747 1144.01927511 -773 1142 C-773.99 1140.515 -773.99 1140.515 -775 1139 C-776.32 1139 -777.64 1139 -779 1139 C-779 1137.68 -779 1136.36 -779 1135 C-779.66 1135 -780.32 1135 -781 1135 C-781.20625 1134.113125 -781.4125 1133.22625 -781.625 1132.3125 C-782.984271 1129.03789259 -783.45823156 1128.41241814 -786.125 1126.4375 C-789 1124 -789 1124 -789.375 1121.1875 C-789.189375 1120.1046875 -789.189375 1120.1046875 -789 1119 C-789.66 1119 -790.32 1119 -791 1119 C-791.12375 1118.360625 -791.2475 1117.72125 -791.375 1117.0625 C-791.58125 1116.381875 -791.7875 1115.70125 -792 1115 C-792.66 1114.67 -793.32 1114.34 -794 1114 C-794.33 1114.99 -794.66 1115.98 -795 1117 C-795.66 1116.67 -796.32 1116.34 -797 1116 C-797.625 1112.9375 -797.625 1112.9375 -798 1110 C-797.34 1110 -796.68 1110 -796 1110 C-796 1109.34 -796 1108.68 -796 1108 C-796.66 1108 -797.32 1108 -798 1108 C-798.495 1106.515 -798.495 1106.515 -799 1105 C-799.99 1104.608125 -800.98 1104.21625 -802 1103.8125 C-805 1102 -805 1102 -805.51171875 1100.13671875 C-805.62876436 1098.71396428 -805.72258982 1097.28910619 -805.79296875 1095.86328125 C-805.84408878 1093.8509989 -805.84408878 1093.8509989 -807.5 1092.1875 C-808.2425 1091.5996875 -808.2425 1091.5996875 -809 1091 C-809.495 1089.515 -809.495 1089.515 -810 1088 C-810.66 1087.67 -811.32 1087.34 -812 1087 C-812.40729228 1084.67843403 -812.74438677 1082.3431213 -813 1080 C-813.66 1080 -814.32 1080 -815 1080 C-815.33 1080.66 -815.66 1081.32 -816 1082 C-819.59378942 1076.60931587 -820.45356243 1073.46326465 -820 1067 C-821.3921875 1066.7525 -821.3921875 1066.7525 -822.8125 1066.5 C-826.21560541 1064.89853863 -826.55040961 1064.63848357 -827.875 1061.375 C-829.19491741 1057.16052687 -829.2350721 1053.38801248 -829 1049 C-830.98 1049.33 -832.96 1049.66 -835 1050 C-836.4976055 1046.20606606 -837.10955833 1042.90995788 -837.3125 1038.875 C-837.46242966 1036.29195197 -837.46242966 1036.29195197 -838 1034 C-839.65002828 1032.64613064 -841.3174387 1031.31321858 -843 1030 C-844.0359243 1026.71434109 -844.56366473 1023.41253255 -845 1020 C-845.33 1020 -845.66 1020 -846 1020 C-846.2165625 1018.2984375 -846.2165625 1018.2984375 -846.4375 1016.5625 C-846.61171478 1013.19222799 -846.61171478 1013.19222799 -848 1012 C-848.495 1014.475 -848.495 1014.475 -849 1017 C-850.32 1016.67 -851.64 1016.34 -853 1016 C-853.91160286 1008.64206267 -854.11459026 1001.41017023 -854 994 C-854.66 994 -855.32 994 -856 994 C-857.03013277 992.35178756 -858.03114628 990.68496298 -859 989 C-859.33 989 -859.66 989 -860 989 C-860.03738281 987.89140625 -860.07476563 986.7828125 -860.11328125 985.640625 C-860.17895448 984.17705026 -860.24540135 982.71351009 -860.3125 981.25 C-860.33505859 980.52039062 -860.35761719 979.79078125 -860.38085938 979.0390625 C-860.59725375 974.711175 -861.07762531 972.21536341 -864 969 C-864.33 968.01 -864.66 967.02 -865 966 C-865.66 965.67 -866.32 965.34 -867 965 C-867.02505615 964.40461426 -867.0501123 963.80922852 -867.07592773 963.19580078 C-867.19177494 960.50530864 -867.31455196 957.8151766 -867.4375 955.125 C-867.47681641 954.18785156 -867.51613281 953.25070312 -867.55664062 952.28515625 C-867.59853516 951.38925781 -867.64042969 950.49335937 -867.68359375 949.5703125 C-867.72025146 948.74289551 -867.75690918 947.91547852 -867.79467773 947.06298828 C-867.88238327 944.93820571 -867.88238327 944.93820571 -869 943 C-869.66 943 -870.32 943 -871 943 C-871.495 940.03 -871.495 940.03 -872 937 C-872.66 937 -873.32 937 -874 937 C-877.75737453 924.90078138 -877.7219705 912.56355409 -878 900 C-878.99 900.33 -879.98 900.66 -881 901 C-883.5915262 895.06108578 -884.40368295 890.45892714 -884 884 C-884.66 884 -885.32 884 -886 884 C-886 829.55 -886 775.1 -886 719 C-884.68 718.67 -883.36 718.34 -882 718 C-882.66 717.67 -883.32 717.34 -884 717 C-884 699.84 -884 682.68 -884 665 C-882.02 664.67 -880.04 664.34 -878 664 C-876.99986826 659.85758584 -876.88483458 655.98519696 -876.90234375 651.73046875 C-876.9037587 651.04946609 -876.90517365 650.36846344 -876.90663147 649.66682434 C-876.91219702 647.50700353 -876.92474297 645.34728911 -876.9375 643.1875 C-876.94251946 641.71679838 -876.94708159 640.24609512 -876.95117188 638.77539062 C-876.96215512 635.1835596 -876.97939578 631.5917902 -877 628 C-875.68 627.34 -874.36 626.68 -873 626 C-873 625.34 -873 624.68 -873 624 C-872.360625 623.773125 -871.72125 623.54625 -871.0625 623.3125 C-868.77858046 622.18466214 -868.77858046 622.18466214 -868.39086914 619.74926758 C-868.00718938 617.05056814 -867.79506199 614.42222866 -867.68359375 611.69921875 C-867.64169922 610.72275391 -867.59980469 609.74628906 -867.55664062 608.74023438 C-867.49766602 607.22913086 -867.49766602 607.22913086 -867.4375 605.6875 C-867.39431641 604.66076172 -867.35113281 603.63402344 -867.30664062 602.57617188 C-867.20093175 600.05090431 -867.09883532 597.52554438 -867 595 C-866.34 595 -865.68 595 -865 595 C-865 594.34 -865 593.68 -865 593 C-864.34 593 -863.68 593 -863 593 C-863 593.66 -863 594.32 -863 595 C-862.34 595 -861.68 595 -861 595 C-861 594.01 -861 593.02 -861 592 C-860.34 592 -859.68 592 -859 592 C-859.33 591.34 -859.66 590.68 -860 590 C-860.23031261 587.21001052 -860.36981022 584.48145414 -860.4375 581.6875 C-860.50614258 580.54764648 -860.50614258 580.54764648 -860.57617188 579.38476562 C-860.68574553 573.90131865 -860.68574553 573.90131865 -858.73876953 571.34228516 C-856.11001497 569.03551847 -854.53662007 568 -851 568 C-851 563.71 -851 559.42 -851 555 C-849.68 555 -848.36 555 -847 555 C-846.855625 554.4225 -846.71125 553.845 -846.5625 553.25 C-846.2320941 551.9283764 -845.88423358 550.61052228 -845.49609375 549.3046875 C-844.56456682 544.97712146 -844.53797096 540.5272868 -844.28125 536.1171875 C-844 533 -844 533 -843 531 C-841.35 531 -839.7 531 -838 531 C-837.505 524.565 -837.505 524.565 -837 518 C-837.66 518 -838.32 518 -839 518 C-839 517.01 -839 516.02 -839 515 C-839.66 515 -840.32 515 -841 515 C-840.25 508.375 -840.25 508.375 -838 505 C-837.62984319 502.49307033 -837.62984319 502.49307033 -837.5859375 499.61328125 C-837.52805054 497.89866699 -837.52805054 497.89866699 -837.46899414 496.14941406 C-837.43797607 494.88323242 -837.40695801 493.61705078 -837.375 492.3125 C-837.33528279 490.97232842 -837.29548542 489.63215922 -837.25561523 488.29199219 C-837.01587889 479.41163926 -836.98214795 470.53553899 -837.01171875 461.65234375 C-837.01476013 460.58885208 -837.01780151 459.52536041 -837.02093506 458.42964172 C-837.03871374 453.10816496 -837.07098895 447.78730181 -837.12451172 442.46606445 C-837.13660766 440.47216926 -837.14849797 438.4782728 -837.16015625 436.484375 C-837.17366623 435.58947861 -837.18717621 434.69458221 -837.20109558 433.77256775 C-837.22599749 427.32990588 -836.33473043 421.29756215 -835 415 C-834.01 415.33 -833.02 415.66 -832 416 C-831.3125 418.0625 -831.3125 418.0625 -831 420 C-829.85079754 417.70159508 -829.85226251 416.33930958 -829.81054688 413.78149414 C-829.78547058 412.47487572 -829.78547058 412.47487572 -829.7598877 411.14186096 C-829.74631226 410.19914841 -829.73273682 409.25643585 -829.71875 408.28515625 C-829.70034058 407.31847519 -829.68193115 406.35179413 -829.66296387 405.3558197 C-829.6041012 402.25810945 -829.55133885 399.16034355 -829.5 396.0625 C-829.43240626 391.99076695 -829.35871183 387.91921215 -829.28125 383.84765625 C-829.26767456 382.90696793 -829.25409912 381.9662796 -829.2401123 380.99708557 C-829.21503601 379.68573891 -829.21503601 379.68573891 -829.18945312 378.34790039 C-829.17692505 377.57893936 -829.16439697 376.80997833 -829.15148926 376.01771545 C-829 374 -829 374 -828 371 C-827.8174961 369.05406561 -827.68062292 367.10370224 -827.5703125 365.15234375 C-827.49683594 363.98896484 -827.42335938 362.82558594 -827.34765625 361.62695312 C-827.20089082 359.19502425 -827.06012341 356.7627249 -826.92578125 354.33007812 C-826.5110584 347.93701994 -825.77794722 342.170083 -823.68383789 336.1003418 C-822.70299367 333.08777385 -822.34164623 330.14314535 -822 327 C-821.34 327 -820.68 327 -820 327 C-820.0314209 325.70304199 -820.0314209 325.70304199 -820.06347656 324.37988281 C-820.92081731 283.52054192 -820.92081731 283.52054192 -814.45678711 272.32788086 C-812.59023256 268.06392827 -812.54171272 264.51910819 -812.5234375 259.91796875 C-812.50785797 259.06318436 -812.49227844 258.20839996 -812.47622681 257.32771301 C-812.4289224 254.61431702 -812.40099814 251.90117655 -812.375 249.1875 C-812.33852759 246.4561484 -812.29799026 243.72494236 -812.25234985 240.99372864 C-812.22508255 239.2977605 -812.20374898 237.60168491 -812.18881226 235.90556335 C-812.11070587 230.11070587 -812.11070587 230.11070587 -811 229 C-810.09086144 222.32624956 -809.72299008 215.66289757 -809.4375 208.9375 C-809.37272461 207.49600586 -809.37272461 207.49600586 -809.30664062 206.02539062 C-809.20178868 203.68369723 -809.09962212 201.34192071 -809 199 C-808.34 198.67 -807.68 198.34 -807 198 C-806.20763794 186.31169808 -805.87350479 174.6304943 -805.71875 162.91796875 C-805.70920288 162.20402073 -805.69965576 161.49007271 -805.68981934 160.7544899 C-805.61150294 154.80293332 -805.54173496 148.85128175 -805.47393799 142.89959717 C-805.42281931 138.42415114 -805.36805995 133.94878092 -805.30812073 129.47344398 C-805.28182398 127.40071045 -805.26087556 125.32796791 -805.2401123 123.25517273 C-805.22339478 121.99558243 -805.20667725 120.73599213 -805.18945312 119.43823242 C-805.17066101 117.7854554 -805.17066101 117.7854554 -805.15148926 116.09928894 C-804.9998358 112.9966406 -804.57327195 110.05051568 -804 107 C-804.99 107 -805.98 107 -807 107 C-807 105.68 -807 104.36 -807 103 C-805.02 103 -803.04 103 -801 103 C-801 103.99 -801 104.98 -801 106 C-800.34 106 -799.68 106 -799 106 C-798.93941406 104.89140625 -798.87882813 103.7828125 -798.81640625 102.640625 C-798.73197049 101.1770718 -798.64732401 99.71353075 -798.5625 98.25 C-798.52318359 97.52039063 -798.48386719 96.79078125 -798.44335938 96.0390625 C-798.23812125 92.56580191 -797.86955464 89.35914909 -797 86 C-796.63944399 80.33714975 -797.08553346 74.70557167 -797.5625 69.0625 C-798.04727816 62.91524362 -797.80986328 57.1051232 -797 51 C-796.01 51 -795.02 51 -794 51 C-793.505 55.455 -793.505 55.455 -793 60 C-792.51526322 58.31409158 -792.03751074 56.62617455 -791.5625 54.9375 C-791.13904297 53.43509766 -791.13904297 53.43509766 -790.70703125 51.90234375 C-790.12199035 49.50076702 -789.85002915 47.44808173 -789.75 45 C-789.37875 43.515 -789.37875 43.515 -789 42 C-786.68020619 40.96898053 -784.34570085 39.97063483 -782 39 C-780.96157435 36.68351201 -779.9578025 34.35096976 -779 32 C-776.625 31.25 -776.625 31.25 -774 31 C-771.2541637 29.53129686 -769.20271564 28.20271564 -767 26 C-764.3984375 25.8046875 -764.3984375 25.8046875 -761.375 25.875 C-760.37210938 25.89304688 -759.36921875 25.91109375 -758.3359375 25.9296875 C-757.56507813 25.95289063 -756.79421875 25.97609375 -756 26 C-756 26.66 -756 27.32 -756 28 C-753.36 28.33 -750.72 28.66 -748 29 C-747.01 31.97 -747.01 31.97 -746 35 C-743.03 35.33 -740.06 35.66 -737 36 C-737 36.66 -737 37.32 -737 38 C-736.01257813 38.13277344 -735.02515625 38.26554687 -734.0078125 38.40234375 C-732.72648438 38.57894531 -731.44515625 38.75554687 -730.125 38.9375 C-728.84882812 39.11152344 -727.57265625 39.28554687 -726.2578125 39.46484375 C-723 40 -723 40 -721 41 C-720.5859375 43.06640625 -720.5859375 43.06640625 -720.375 45.5625 C-720.26285156 46.80193359 -720.26285156 46.80193359 -720.1484375 48.06640625 C-720.09945312 48.70449219 -720.05046875 49.34257812 -720 50 C-717.03 50.495 -717.03 50.495 -714 51 C-713.01 56.445 -713.01 56.445 -712 62 C-710.68 60.68 -709.36 59.36 -708 58 C-706.22689889 61.11569618 -705.64308724 63.77293759 -705.1875 67.3125 C-704.40766737 72.00397313 -703.16207211 74.80837827 -700.15234375 78.4375 C-699 80 -699 80 -698.0625 83.3125 C-697.24061555 86.31447845 -697.24061555 86.31447845 -694 87.3125 C-693.01 87.539375 -692.02 87.76625 -691 88 C-690.34 88.33 -689.68 88.66 -689 89 C-689 89.99 -689 90.98 -689 92 C-689.66 92 -690.32 92 -691 92 C-691 92.99 -691 93.98 -691 95 C-690.2575 95.020625 -689.515 95.04125 -688.75 95.0625 C-685.38007723 96.21133731 -684.32579902 97.82691716 -682.71484375 100.9453125 C-681.51954988 104.38096593 -681.74683314 107.39237228 -682 111 C-681.01 111.33 -680.02 111.66 -679 112 C-679.33 110.02 -679.66 108.04 -680 106 C-678.68 106 -677.36 106 -676 106 C-675.01 113.425 -675.01 113.425 -674 121 C-671.69 121 -669.38 121 -667 121 C-666.15901344 125.01804691 -665.94595055 128.01803543 -667 132 C-666.01 132.33 -665.02 132.66 -664 133 C-663.01 130.03 -663.01 130.03 -662 127 C-661.01 127 -660.02 127 -659 127 C-658.83240016 129.1249266 -658.66594799 131.24994376 -658.5 133.375 C-658.4071875 134.55835938 -658.314375 135.74171875 -658.21875 136.9609375 C-658.09804546 138.63786843 -658 140.31873056 -658 142 C-654.04 142.99 -654.04 142.99 -650 144 C-650.20625 145.2375 -650.4125 146.475 -650.625 147.75 C-651.06984931 151.20519941 -650.89156269 152.99575337 -649 156 C-649 156.99 -649 157.98 -649 159 C-647.35 159.66 -645.7 160.32 -644 161 C-644 162.98 -644 164.96 -644 167 C-643.01 166.34 -642.02 165.68 -641 165 C-641.33 163.68 -641.66 162.36 -642 161 C-641.01 161 -640.02 161 -639 161 C-638.896875 162.175625 -638.79375 163.35125 -638.6875 164.5625 C-638.12588197 168.90157626 -637.11377383 172.14991195 -635 176 C-631.82045251 178.42805648 -631.82045251 178.42805648 -628 179 C-627.03929566 181.88211302 -626.89418117 183.69850044 -626.9375 186.6875 C-626.94652344 187.49574219 -626.95554687 188.30398438 -626.96484375 189.13671875 C-626.98224609 190.05904297 -626.98224609 190.05904297 -627 191 C-626.34 191 -625.68 191 -625 191 C-624.67 190.01 -624.34 189.02 -624 188 C-620.87729874 190.51830747 -620.05476902 191.7261549 -619.25 195.75 C-619.1675 196.8225 -619.085 197.895 -619 199 C-617.35 199.33 -615.7 199.66 -614 200 C-614 199.34 -614 198.68 -614 198 C-613.01 198.33 -612.02 198.66 -611 199 C-610.29788545 203.38821596 -609.89666897 207.5567659 -610 212 C-610 212.66 -610 213.32 -610 214 C-607.09399739 215.25664978 -605.20395416 216 -602 216 C-602 216.99 -602 217.98 -602 219 C-603.32 219 -604.64 219 -606 219 C-605.67 219.66 -605.34 220.32 -605 221 C-604.01 221.33 -603.02 221.66 -602 222 C-602 222.66 -602 223.32 -602 224 C-601.071875 224.4640625 -601.071875 224.4640625 -600.125 224.9375 C-598.75 225.625 -597.375 226.3125 -596 227 C-596.33 228.32 -596.66 229.64 -597 231 C-595.8553125 231.1546875 -595.8553125 231.1546875 -594.6875 231.3125 C-591.78132022 232.05594134 -590.80086951 232.65886963 -589 235 C-588.67 235.99 -588.34 236.98 -588 238 C-584.99152582 239.22520264 -584.99152582 239.22520264 -582 240 C-581.67 241.65 -581.34 243.3 -581 245 C-577.7 245 -574.4 245 -571 245 C-572.98 245.99 -572.98 245.99 -575 247 C-572.69 247.66 -570.38 248.32 -568 249 C-568.0825 248.0925 -568.165 247.185 -568.25 246.25 C-568 243 -568 243 -566.40625 240.8125 C-563.20323037 238.39983586 -561.21220722 238.59151171 -557.25 238.75 C-556.07953125 238.78609375 -554.9090625 238.8221875 -553.703125 238.859375 C-552.81109375 238.90578125 -551.9190625 238.9521875 -551 239 C-551.020625 238.030625 -551.04125 237.06125 -551.0625 236.0625 C-551 233 -551 233 -550 232 C-548.36743242 231.84285346 -546.72864662 231.74914586 -545.08984375 231.68359375 C-543.60581055 231.62075195 -543.60581055 231.62075195 -542.09179688 231.55664062 C-541.05087891 231.51732422 -540.00996094 231.47800781 -538.9375 231.4375 C-537.89271484 231.39431641 -536.84792969 231.35113281 -535.77148438 231.30664062 C-533.18113116 231.20018775 -530.59067814 231.0981724 -528 231 C-528 229.35 -528 227.7 -528 226 C-521.97181491 221.71329061 -517.28695785 221.525623 -510 222 C-510 222.66 -510 223.32 -510 224 C-509.01 224 -508.02 224 -507 224 C-506.67 223.34 -506.34 222.68 -506 222 C-505.01 222 -504.02 222 -503 222 C-503.185625 221.030625 -503.37125 220.06125 -503.5625 219.0625 C-503.706875 218.051875 -503.85125 217.04125 -504 216 C-501.86861816 213.86861816 -497.21642206 214.62475607 -494.25 214.5 C-487.06932879 214.22226608 -487.06932879 214.22226608 -480 213 C-479.67 211.02 -479.34 209.04 -479 207 C-477.92363281 206.96261719 -476.84726562 206.92523438 -475.73828125 206.88671875 C-467.49482651 206.53692174 -459.91631116 205.71141207 -451.89453125 203.6328125 C-447.83077573 202.74438012 -444.14242442 202.78936825 -440 203 C-440 202.01 -440 201.02 -440 200 C-439.3922876 200.01571045 -438.7845752 200.0314209 -438.15844727 200.04760742 C-426.33862942 200.31145755 -415.17516675 200.15783602 -403.59375 197.65625 C-399.97989066 196.99632786 -396.664621 196.88666121 -393 197 C-393.33 195.35 -393.66 193.7 -394 192 C-342.52 192 -291.04 192 -238 192 C-237.67 192.99 -237.34 193.98 -237 195 C-237.33 195.66 -237.66 196.32 -238 197 C-237.34 197 -236.68 197 -236 197 C-235.67 197.66 -235.34 198.32 -235 199 C-229.36174976 199.99477759 -223.83720302 200.1360427 -218.125 200.09765625 C-216.91009888 200.09553383 -216.91009888 200.09553383 -215.6706543 200.09336853 C-213.11373006 200.08782383 -210.55689724 200.07528207 -208 200.0625 C-206.25390753 200.05747784 -204.50781366 200.05291619 -202.76171875 200.04882812 C-198.50777791 200.0378726 -194.25390439 200.02064694 -190 200 C-189.67 202.31 -189.34 204.62 -189 207 C-179.1 207 -169.2 207 -159 207 C-158.34 208.65 -157.68 210.3 -157 212 C-157.66 212 -158.32 212 -159 212 C-159 212.66 -159 213.32 -159 214 C-152.73 214 -146.46 214 -140 214 C-140 212.35 -140 210.7 -140 209 C-138.515 208.01 -138.515 208.01 -137 207 C-136.42251197 205.03638136 -136.42251197 205.03638136 -136.3125 202.875 C-136.209375 201.59625 -136.10625 200.3175 -136 199 C-134.02 198.505 -134.02 198.505 -132 198 C-132 198.66 -132 199.32 -132 200 C-131.01 200 -130.02 200 -129 200 C-129 199.01 -129 198.02 -129 197 C-128.34 197 -127.68 197 -127 197 C-127.33 195.35 -127.66 193.7 -128 192 C-126.35 192.33 -124.7 192.66 -123 193 C-122.67 192.01 -122.34 191.02 -122 190 C-121 189 -120 188 -119 187 C-118.67 186.01 -118.34 185.02 -118 184 C-116.02 184 -114.04 184 -112 184 C-112.0928125 182.1128125 -112.0928125 182.1128125 -112.1875 180.1875 C-112.1875 176.28571429 -112.1875 176.28571429 -110.6875 174 C-109 173 -109 173 -106 173 C-105.67 171.68 -105.34 170.36 -105 169 C-104.34 169 -103.68 169 -103 169 C-102.71125 168.0925 -102.4225 167.185 -102.125 166.25 C-100.36683417 161.17085427 -100.36683417 161.17085427 -99 159 C-98.01 158.67 -97.02 158.34 -96 158 C-96 155.69 -96 153.38 -96 151 C-95.1028125 151.3403125 -95.1028125 151.3403125 -94.1875 151.6875 C-92.00343401 152.22435559 -92.00343401 152.22435559 -90.3125 151.0625 C-88.27391413 147.85900792 -88.30838382 144.76228261 -88 141 C-88.66 141 -89.32 141 -90 141 C-90 138.69 -90 136.38 -90 134 C-89.01 134 -88.02 134 -87 134 C-87 135.32 -87 136.64 -87 138 C-84.3549963 137.08216876 -84.3549963 137.08216876 -82 135 C-81.53162101 132.20625708 -81.76575495 129.85778964 -82 127 C-77.25 125 -77.25 125 -75 125 C-74.86722656 124.22914063 -74.73445313 123.45828125 -74.59765625 122.6640625 C-74.42105469 121.66117187 -74.24445312 120.65828125 -74.0625 119.625 C-73.88847656 118.62726563 -73.71445313 117.62953125 -73.53515625 116.6015625 C-73 114 -73 114 -72 112 C-70.68 112 -69.36 112 -68 112 C-68.0928125 110.8553125 -68.0928125 110.8553125 -68.1875 109.6875 C-67.96118351 106.44363031 -67.25057928 106.16055611 -65 104 C-64.27802838 101.39388923 -64.27802838 101.39388923 -64 99 C-63.34 99 -62.68 99 -62 99 C-62 98.34 -62 97.68 -62 97 C-60.68 97 -59.36 97 -58 97 C-57.938125 95.9275 -57.87625 94.855 -57.8125 93.75 C-57 90 -57 90 -54.5625 88.1875 C-50.69383329 84.88497964 -50.62419577 80.88176987 -50 76 C-50.66 76 -51.32 76 -52 76 C-52 74.68 -52 73.36 -52 72 C-49.6875 71.375 -49.6875 71.375 -47 71 C-46.01 71.66 -45.02 72.32 -44 73 C-43.34 68.05 -42.68 63.1 -42 58 C-41.01 58.33 -40.02 58.66 -39 59 C-39 60.32 -39 61.64 -39 63 C-38.34 63 -37.68 63 -37 63 C-35.00214565 58.8794254 -34.82164485 55.54805635 -35 51 C-31.19495213 49.20317184 -30.29399165 48.92650209 -26 50 C-26 46.7 -26 43.4 -26 40 C-25.113125 40.061875 -24.22625 40.12375 -23.3125 40.1875 C-19.87618489 39.35757752 -19.87618489 39.35757752 -18.6640625 36.6953125 C-17.82946778 34.7337491 -17.01909279 32.76174273 -16.23046875 30.78125 C-15.11299084 28.25539516 -14.14247982 26.76462818 -12.25 24.8125 C-9.92293508 21.90366885 -9.72710454 21.29476955 -9.5 17.8125 C-9 14 -9 14 -6.5625 12 C-4 11 -4 11 -2 11 C-1.34 7.37 -0.68 3.74 0 0 Z M-834 513 C-834 513.99 -834 514.98 -834 516 C-833.34 515.67 -832.68 515.34 -832 515 C-832 514.34 -832 513.68 -832 513 C-832.66 513 -833.32 513 -834 513 Z M-292 1088 C-292 1088.33 -292 1088.66 -292 1089 C-287.05 1089 -282.1 1089 -277 1089 C-277 1088.67 -277 1088.34 -277 1088 C-281.95 1088 -286.9 1088 -292 1088 Z M-177 1088 C-173 1089 -173 1089 -173 1089 Z " fill="#000000" transform="translate(1342,111)"/>
<path d="M0 0 C2.09073007 0.00539733 4.18124877 0.00000416 6.27197266 -0.00634766 C7.61962937 -0.00568737 8.96728596 -0.00440725 10.31494141 -0.00244141 C11.51860352 -0.00131348 12.72226563 -0.00018555 13.96240234 0.00097656 C22.69472101 0.33644546 22.69472101 0.33644546 26.33056641 4.13037109 C27.99071256 4.49479342 29.65762704 4.83009993 31.33056641 5.13037109 C32.32056641 6.12037109 32.32056641 6.12037109 33.33056641 7.13037109 C35.91758579 7.45259955 35.91758579 7.45259955 38.92431641 7.43896484 C40.03677734 7.46410156 41.14923828 7.48923828 42.29541016 7.51513672 C44.65212597 7.55029215 47.00890327 7.58154241 49.36572266 7.60888672 C50.47818359 7.6353125 51.59064453 7.66173828 52.73681641 7.68896484 C53.76097656 7.70241943 54.78513672 7.71587402 55.84033203 7.72973633 C56.66210938 7.8619458 57.48388672 7.99415527 58.33056641 8.13037109 C60.33056641 11.13037109 60.33056641 11.13037109 60.33056641 15.13037109 C61.56806641 15.06849609 62.80556641 15.00662109 64.08056641 14.94287109 C66.85515447 14.95267529 68.18192639 15.05605109 70.70556641 16.31787109 C73.43707374 19.36455235 74.33056641 22.06851745 74.33056641 26.13037109 C75.65056641 26.13037109 76.97056641 26.13037109 78.33056641 26.13037109 C80.3571656 29.50702287 80.61614836 32.19510999 80.70947266 36.10302734 C80.74363281 37.24964844 80.77779297 38.39626953 80.81298828 39.57763672 C80.83941406 40.77066406 80.86583984 41.96369141 80.89306641 43.19287109 C80.95294871 45.55885897 81.01657488 47.92475593 81.08447266 50.29052734 C81.10840088 51.33861572 81.1323291 52.3867041 81.15698242 53.46655273 C81.22414463 56.23422197 81.22414463 56.23422197 82.33056641 59.13037109 C82.66056641 57.81037109 82.99056641 56.49037109 83.33056641 55.13037109 C83.99056641 55.13037109 84.65056641 55.13037109 85.33056641 55.13037109 C88.53602948 63.64205271 88.64602933 70.38750247 86.33056641 79.13037109 C85.34056641 79.13037109 84.35056641 79.13037109 83.33056641 79.13037109 C83.33056641 78.14037109 83.33056641 77.15037109 83.33056641 76.13037109 C82.67056641 76.13037109 82.01056641 76.13037109 81.33056641 76.13037109 C81.28158203 77.08298828 81.23259766 78.03560547 81.18212891 79.01708984 C81.10736328 80.27134766 81.03259766 81.52560547 80.95556641 82.81787109 C80.88595703 84.05923828 80.81634766 85.30060547 80.74462891 86.57958984 C80.36634546 89.82354881 79.71076665 92.19604294 78.33056641 95.13037109 C77.01056641 94.80037109 75.69056641 94.47037109 74.33056641 94.13037109 C74.33056641 95.12037109 74.33056641 96.11037109 74.33056641 97.13037109 C73.34056641 97.62537109 73.34056641 97.62537109 72.33056641 98.13037109 C71.95931641 99.58443359 71.95931641 99.58443359 71.58056641 101.06787109 C70.33056641 104.13037109 70.33056641 104.13037109 67.20556641 105.50537109 C65.78244141 105.81474609 65.78244141 105.81474609 64.33056641 106.13037109 C64.33056641 106.79037109 64.33056641 107.45037109 64.33056641 108.13037109 C63.34056641 108.79037109 62.35056641 109.45037109 61.33056641 110.13037109 C61.00056641 111.12037109 60.67056641 112.11037109 60.33056641 113.13037109 C59.34056641 113.13037109 58.35056641 113.13037109 57.33056641 113.13037109 C57.33056641 113.79037109 57.33056641 114.45037109 57.33056641 115.13037109 C54.69056641 115.13037109 52.05056641 115.13037109 49.33056641 115.13037109 C49.99056641 116.78037109 50.65056641 118.43037109 51.33056641 120.13037109 C47.42086568 122.73683824 44.33106344 122.54504317 39.72900391 122.78662109 C38.54177734 122.95677734 38.54177734 122.95677734 37.33056641 123.13037109 C37.00056641 123.79037109 36.67056641 124.45037109 36.33056641 125.13037109 C35.34056641 125.46037109 34.35056641 125.79037109 33.33056641 126.13037109 C33.00056641 126.79037109 32.67056641 127.45037109 32.33056641 128.13037109 C30.33056641 128.79703776 28.33056641 129.46370443 26.33056641 130.13037109 C26.00056641 130.79037109 25.67056641 131.45037109 25.33056641 132.13037109 C23.99723307 132.79703776 22.66389974 133.46370443 21.33056641 134.13037109 C21.00056641 134.79037109 20.67056641 135.45037109 20.33056641 136.13037109 C13.12238296 136.20631922 5.91430236 136.25892787 -1.29418945 136.29516602 C-3.74735368 136.31026991 -6.20049083 136.3307543 -8.65356445 136.35668945 C-12.17584914 136.39300167 -15.69777741 136.41008146 -19.22021484 136.42333984 C-20.87033318 136.44656563 -20.87033318 136.44656563 -22.55378723 136.47026062 C-24.08503487 136.47060051 -24.08503487 136.47060051 -25.6472168 136.47094727 C-26.54656448 136.4776091 -27.44591217 136.48427094 -28.37251282 136.49113464 C-31.1581448 136.05361216 -31.79402796 135.14492162 -33.66943359 133.13037109 C-37.27966459 132.39995256 -37.27966459 132.39995256 -40.66943359 132.13037109 C-40.66943359 131.47037109 -40.66943359 130.81037109 -40.66943359 130.13037109 C-42.794365 130.10343534 -44.91939272 130.08400481 -47.04443359 130.06787109 C-48.81947266 130.05046875 -48.81947266 130.05046875 -50.63037109 130.03271484 C-53.5886488 129.91570517 -53.5886488 129.91570517 -55.66943359 131.13037109 C-57.66903371 131.1703631 -59.66990602 131.17383908 -61.66943359 131.13037109 C-61.66943359 130.14037109 -61.66943359 129.15037109 -61.66943359 128.13037109 C-59.02943359 128.13037109 -56.38943359 128.13037109 -53.66943359 128.13037109 C-53.66943359 127.14037109 -53.66943359 126.15037109 -53.66943359 125.13037109 C-54.28818359 124.98599609 -54.90693359 124.84162109 -55.54443359 124.69287109 C-57.66943359 124.13037109 -57.66943359 124.13037109 -59.66943359 123.13037109 C-59.99943359 123.79037109 -60.32943359 124.45037109 -60.66943359 125.13037109 C-64.89178592 128.32912286 -68.53368606 128.69513825 -73.66943359 129.13037109 C-73.66943359 130.12037109 -73.66943359 131.11037109 -73.66943359 132.13037109 C-74.65943359 132.13037109 -75.64943359 132.13037109 -76.66943359 132.13037109 C-76.66943359 133.12037109 -76.66943359 134.11037109 -76.66943359 135.13037109 C-78.97943359 135.46037109 -81.28943359 135.79037109 -83.66943359 136.13037109 C-83.66943359 137.12037109 -83.66943359 138.11037109 -83.66943359 139.13037109 C-88.01229074 143.13037109 -88.01229074 143.13037109 -90.66943359 143.13037109 C-90.99943359 144.12037109 -91.32943359 145.11037109 -91.66943359 146.13037109 C-93.64943359 146.13037109 -95.62943359 146.13037109 -97.66943359 146.13037109 C-97.17443359 148.60537109 -97.17443359 148.60537109 -96.66943359 151.13037109 C-99.80441651 152.98813875 -102.04414792 153.33177585 -105.66943359 153.13037109 C-106.16443359 157.09037109 -106.16443359 157.09037109 -106.66943359 161.13037109 C-109.30943359 160.80037109 -111.94943359 160.47037109 -114.66943359 160.13037109 C-114.66943359 161.12037109 -114.66943359 162.11037109 -114.66943359 163.13037109 C-115.65943359 163.13037109 -116.64943359 163.13037109 -117.66943359 163.13037109 C-117.00943359 164.78037109 -116.34943359 166.43037109 -115.66943359 168.13037109 C-116.98943359 169.12037109 -118.30943359 170.11037109 -119.66943359 171.13037109 C-119.00943359 171.46037109 -118.34943359 171.79037109 -117.66943359 172.13037109 C-118.54443359 178.00537109 -118.54443359 178.00537109 -119.66943359 179.13037109 C-123.8317774 179.27641824 -127.686716 179.170204 -131.79443359 178.50537109 C-135.60267603 177.86851502 -135.60267603 177.86851502 -138.79443359 179.19287109 C-141.66943359 180.13037109 -141.66943359 180.13037109 -144.91943359 179.69287109 C-147.66943359 178.13037109 -147.66943359 178.13037109 -148.98193359 175.25537109 C-149.93999859 170.77807724 -150.09925824 166.16940448 -150.32568359 161.60693359 C-150.49583984 160.38103516 -150.49583984 160.38103516 -150.66943359 159.13037109 C-151.32943359 158.80037109 -151.98943359 158.47037109 -152.66943359 158.13037109 C-152.69848224 154.21372002 -152.71624877 150.2970967 -152.73193359 146.38037109 C-152.7403125 145.26919922 -152.74869141 144.15802734 -152.75732422 143.01318359 C-152.76054688 141.94326172 -152.76376953 140.87333984 -152.76708984 139.77099609 C-152.77232666 138.78647461 -152.77756348 137.80195312 -152.78295898 136.78759766 C-152.68102462 134.40167595 -152.35246716 132.40872528 -151.66943359 130.13037109 C-151.00943359 130.13037109 -150.34943359 130.13037109 -149.66943359 130.13037109 C-149.56630859 128.83099609 -149.46318359 127.53162109 -149.35693359 126.19287109 C-148.82112559 121.22876757 -147.42013135 116.78788775 -145.66943359 112.13037109 C-145.00943359 112.13037109 -144.34943359 112.13037109 -143.66943359 112.13037109 C-143.47607422 111.51548828 -143.28271484 110.90060547 -143.08349609 110.26708984 C-142.82310547 109.45884766 -142.56271484 108.65060547 -142.29443359 107.81787109 C-142.03919922 107.01736328 -141.78396484 106.21685547 -141.52099609 105.39208984 C-140.66943359 103.13037109 -140.66943359 103.13037109 -138.66943359 100.13037109 C-138.00943359 100.13037109 -137.34943359 100.13037109 -136.66943359 100.13037109 C-136.45287109 98.45974609 -136.45287109 98.45974609 -136.23193359 96.75537109 C-135.66943359 93.13037109 -135.66943359 93.13037109 -134.66943359 91.13037109 C-134.00943359 91.13037109 -133.34943359 91.13037109 -132.66943359 91.13037109 C-132.33943359 89.81037109 -132.00943359 88.49037109 -131.66943359 87.13037109 C-131.00943359 87.13037109 -130.34943359 87.13037109 -129.66943359 87.13037109 C-129.63205078 86.52708984 -129.59466797 85.92380859 -129.55615234 85.30224609 C-128.86079995 76.84894243 -128.86079995 76.84894243 -125.66943359 74.13037109 C-124.34943359 74.13037109 -123.02943359 74.13037109 -121.66943359 74.13037109 C-120.05375753 71.43757765 -119.6379013 69.77090298 -119.35693359 66.56787109 C-119.13005859 65.43349609 -118.90318359 64.29912109 -118.66943359 63.13037109 C-117.02609855 62.09247528 -115.35699493 61.09469185 -113.66943359 60.13037109 C-113.19505859 58.93412109 -112.72068359 57.73787109 -112.23193359 56.50537109 C-111.71630859 55.39162109 -111.20068359 54.27787109 -110.66943359 53.13037109 C-107.48193359 52.19287109 -107.48193359 52.19287109 -104.66943359 52.13037109 C-104.73130859 51.07849609 -104.79318359 50.02662109 -104.85693359 48.94287109 C-104.65568741 44.85086535 -104.36808074 43.17723077 -101.66943359 40.13037109 C-99.3517763 39.41109814 -97.01847486 38.73938179 -94.66943359 38.13037109 C-94.33943359 37.14037109 -94.00943359 36.15037109 -93.66943359 35.13037109 C-93.00943359 35.13037109 -92.34943359 35.13037109 -91.66943359 35.13037109 C-91.66943359 34.47037109 -91.66943359 33.81037109 -91.66943359 33.13037109 C-89.19443359 32.63537109 -89.19443359 32.63537109 -86.66943359 32.13037109 C-86.52505859 31.53224609 -86.38068359 30.93412109 -86.23193359 30.31787109 C-85.7821897 28.56886705 -85.24051018 26.84360087 -84.66943359 25.13037109 C-82.60693359 23.94287109 -82.60693359 23.94287109 -80.66943359 23.13037109 C-80.66943359 22.80037109 -80.66943359 22.47037109 -80.66943359 22.13037109 C-78.68943359 21.80037109 -76.70943359 21.47037109 -74.66943359 21.13037109 C-74.17443359 19.64537109 -74.17443359 19.64537109 -73.66943359 18.13037109 C-72.67943359 17.80037109 -71.68943359 17.47037109 -70.66943359 17.13037109 C-70.33943359 16.47037109 -70.00943359 15.81037109 -69.66943359 15.13037109 C-66.94677734 14.71630859 -66.94677734 14.71630859 -63.60693359 14.50537109 C-62.50220703 14.43060547 -61.39748047 14.35583984 -60.25927734 14.27880859 C-59.40462891 14.22982422 -58.54998047 14.18083984 -57.66943359 14.13037109 C-58.16443359 12.64537109 -58.16443359 12.64537109 -58.66943359 11.13037109 C-55.39958333 8.19229434 -53.16136138 7.72965497 -48.81005859 7.61865234 C-47.69501953 7.58320312 -46.57998047 7.54775391 -45.43115234 7.51123047 C-44.27228516 7.48867188 -43.11341797 7.46611328 -41.91943359 7.44287109 C-40.74509766 7.40871094 -39.57076172 7.37455078 -38.36083984 7.33935547 C-35.4637997 7.25691937 -32.56706061 7.18775299 -29.66943359 7.13037109 C-29.33943359 6.47037109 -29.00943359 5.81037109 -28.66943359 5.13037109 C-28.00943359 4.98599609 -27.34943359 4.84162109 -26.66943359 4.69287109 C-26.00943359 4.50724609 -25.34943359 4.32162109 -24.66943359 4.13037109 C-24.33943359 3.14037109 -24.00943359 2.15037109 -23.66943359 1.13037109 C-15.7857268 0.09601745 -7.93942713 -0.02441745 0 0 Z " fill="#000000" transform="translate(1073.66943359375,876.86962890625)"/>
<path d="M0 0 C3.63 0 7.26 0 11 0 C11 0.99 11 1.98 11 3 C7.37 3 3.74 3 0 3 C0 2.01 0 1.02 0 0 Z " fill="#000000" transform="translate(840,1461)"/>
<path d="M0 0 C0.99 0 1.98 0 3 0 C3 2.31 3 4.62 3 7 C2.01 6.67 1.02 6.34 0 6 C0 4.02 0 2.04 0 0 Z " fill="#000000" transform="translate(1538,1059)"/>
<path d="M0 0 C1.32 0 2.64 0 4 0 C4 1.32 4 2.64 4 4 C2.68 4 1.36 4 0 4 C0 2.68 0 1.36 0 0 Z " fill="#000000" transform="translate(1279,914)"/>
<path d="M0 0 C1.32 0.33 2.64 0.66 4 1 C4 1.99 4 2.98 4 4 C2.68 4 1.36 4 0 4 C0 2.68 0 1.36 0 0 Z " fill="#000000" transform="translate(720,1405)"/>
<path d="M0 0 C1.32 0.33 2.64 0.66 4 1 C4 1.99 4 2.98 4 4 C2.68 4 1.36 4 0 4 C0 2.68 0 1.36 0 0 Z " fill="#000000" transform="translate(679,1374)"/>
<path d="M0 0 C1.32 0 2.64 0 4 0 C4 0.99 4 1.98 4 3 C2.68 3 1.36 3 0 3 C0 2.01 0 1.02 0 0 Z " fill="#000000" transform="translate(734,1413)"/>
<path d="M0 0 C0.99 0 1.98 0 3 0 C3 1.32 3 2.64 3 4 C2.01 3.67 1.02 3.34 0 3 C0 2.01 0 1.02 0 0 Z " fill="#000000" transform="translate(1490,962)"/>
<path d="M0 0 C0.99 0 1.98 0 3 0 C2.67 1.32 2.34 2.64 2 4 C1.34 4 0.68 4 0 4 C0 2.68 0 1.36 0 0 Z " fill="#000000" transform="translate(1159,962)"/>
<path d="M0 0 C0.99 0 1.98 0 3 0 C3 1.32 3 2.64 3 4 C2.01 3.67 1.02 3.34 0 3 C0 2.01 0 1.02 0 0 Z " fill="#000000" transform="translate(735,320)"/>
<path d="M0 0 C0.33 0.99 0.66 1.98 1 3 C0.01 3 -0.98 3 -2 3 C-2 2.34 -2 1.68 -2 1 C-1.34 0.67 -0.68 0.34 0 0 Z " fill="#000000" transform="translate(1378,114)"/>
<path d="M0 0 C0.66 0 1.32 0 2 0 C2 0.99 2 1.98 2 3 C1.34 3 0.68 3 0 3 C0 2.01 0 1.02 0 0 Z " fill="#000000" transform="translate(964,925)"/>
<path d="M0 0 C1 4 1 4 1 4 Z " fill="#000000" transform="translate(848,1120)"/>
<path d="M0 0 C1 4 1 4 1 4 Z " fill="#000000" transform="translate(488,670)"/>
<path d="M0 0 C2 1 2 1 2 1 Z " fill="#000000" transform="translate(1156,1198)"/>
<path d="" fill="#000000" transform="translate(0,0)"/>
<path d="" fill="#000000" transform="translate(0,0)"/>
<path d="" fill="#000000" transform="translate(0,0)"/>
<path d="" fill="#000000" transform="translate(0,0)"/>
</svg>
