<?xml version="1.0" standalone="no"?>
<!DOCTYPE svg PUBLIC "-//W3C//DTD SVG 20010904//EN"
 "http://www.w3.org/TR/2001/REC-SVG-20010904/DTD/svg10.dtd">
<svg version="1.0" xmlns="http://www.w3.org/2000/svg"
 width="2000.000000pt" height="1600.000000pt" viewBox="0 0 2000.000000 1600.000000"
 preserveAspectRatio="xMidYMid meet">

<g transform="translate(0.000000,1600.000000) scale(0.100000,-0.100000)"
fill="#000000" stroke="none">
<path d="M13495 14747 c-24 -11 -104 -115 -130 -167 -10 -19 -42 -69 -70 -110
-29 -41 -62 -93 -73 -116 -12 -23 -46 -70 -76 -106 -31 -36 -56 -68 -56 -72 0
-6 -71 -115 -145 -221 -37 -53 -148 -234 -199 -325 -33 -57 -72 -122 -117
-194 -102 -161 -132 -206 -159 -241 -17 -22 -56 -74 -86 -115 -30 -41 -90
-113 -132 -160 -43 -47 -103 -115 -135 -152 -33 -37 -72 -71 -89 -77 -17 -6
-67 -11 -112 -11 l-81 0 -36 40 -37 40 -100 0 c-114 0 -145 9 -184 51 -25 27
-32 29 -95 29 -100 0 -350 36 -378 54 -20 13 -113 16 -737 17 -499 2 -728 -1
-763 -9 -54 -12 -258 -41 -475 -68 -167 -20 -324 -56 -387 -88 -27 -13 -79
-33 -118 -45 -38 -12 -86 -32 -106 -46 -42 -27 -129 -55 -174 -55 -20 0 -39
-8 -51 -21 -28 -32 -78 -50 -153 -55 -61 -4 -68 -7 -96 -40 -26 -31 -38 -37
-80 -40 -43 -3 -54 -9 -80 -40 -30 -35 -34 -37 -103 -40 -71 -3 -72 -3 -119
37 -75 64 -224 211 -268 263 -79 96 -215 273 -215 281 0 3 -27 42 -61 87 -33
45 -69 98 -79 117 -10 20 -38 62 -62 93 -60 80 -100 137 -123 178 -11 19 -40
64 -65 99 -25 35 -61 87 -81 115 -19 28 -52 75 -72 103 -20 29 -37 57 -37 63
0 5 -4 10 -9 10 -5 0 -16 16 -25 35 -9 19 -27 47 -39 62 -13 15 -34 46 -47 68
-13 22 -39 58 -57 81 -18 23 -33 44 -33 47 0 3 -19 35 -43 70 -23 36 -55 89
-72 117 -62 107 -105 140 -180 140 -27 0 -45 9 -78 39 -23 21 -52 43 -64 50
-68 35 -160 -13 -215 -113 -65 -120 -74 -156 -88 -331 -6 -78 -18 -153 -30
-187 -14 -39 -25 -119 -35 -250 -8 -106 -22 -256 -31 -333 -8 -77 -19 -234
-24 -350 -12 -271 -43 -641 -69 -825 -12 -80 -25 -217 -31 -305 -8 -132 -40
-351 -55 -375 -2 -4 -13 -132 -25 -286 -11 -153 -27 -324 -35 -379 -20 -131
-33 -318 -45 -650 -11 -300 -19 -359 -54 -426 -13 -26 -27 -62 -31 -80 -4 -19
-20 -54 -35 -79 -15 -25 -35 -78 -44 -119 -9 -40 -27 -94 -41 -120 -13 -26
-27 -64 -30 -84 -4 -21 -18 -54 -32 -74 -15 -22 -30 -68 -40 -119 -10 -58 -24
-98 -44 -127 -16 -23 -29 -55 -29 -72 0 -55 -30 -189 -54 -239 -13 -28 -26
-80 -29 -116 -16 -168 -29 -245 -47 -280 -18 -35 -20 -66 -25 -281 -3 -158 -9
-246 -16 -255 -6 -8 -22 -14 -35 -14 -23 0 -24 -2 -24 -85 0 -50 4 -85 10 -85
6 0 10 -28 10 -65 0 -37 -4 -65 -10 -65 -6 0 -10 -88 -10 -245 0 -157 4 -245
10 -245 6 0 10 -18 10 -41 0 -22 5 -50 12 -62 13 -25 29 -149 53 -402 8 -93
26 -228 40 -300 13 -71 29 -166 35 -210 6 -44 20 -114 31 -155 11 -41 33 -136
49 -210 16 -74 38 -160 49 -190 12 -30 26 -81 33 -115 6 -33 24 -88 40 -122
15 -34 32 -79 37 -100 21 -87 189 -459 301 -668 24 -44 62 -114 84 -157 23
-42 59 -104 81 -138 102 -158 190 -288 216 -320 16 -19 29 -39 30 -45 0 -5 25
-39 54 -75 30 -36 83 -101 117 -144 35 -44 106 -127 158 -185 52 -59 122 -137
155 -175 94 -105 164 -178 240 -247 39 -34 129 -118 200 -185 72 -67 168 -152
214 -189 46 -37 102 -84 124 -106 23 -22 68 -58 100 -82 33 -23 76 -57 96 -74
20 -18 39 -33 43 -33 4 0 16 -6 25 -14 112 -92 499 -356 521 -356 3 0 35 -15
71 -34 36 -18 93 -41 126 -51 33 -9 83 -27 110 -40 28 -13 91 -31 140 -40 50
-9 124 -28 165 -42 41 -13 109 -29 150 -34 41 -6 102 -22 135 -35 33 -14 106
-31 161 -39 101 -15 184 -33 237 -54 15 -6 98 -20 184 -31 86 -12 181 -29 212
-39 77 -26 149 -39 264 -46 55 -3 156 -19 225 -35 293 -65 1133 -63 1392 4 52
13 145 29 205 36 61 6 143 22 184 36 41 14 128 34 193 45 66 11 147 31 181 44
34 12 102 30 151 40 49 9 110 27 135 40 26 13 74 28 106 34 33 6 94 24 135 40
41 16 102 37 135 46 33 10 69 23 80 30 11 6 47 22 80 34 33 12 87 35 119 52
33 16 66 29 73 29 8 0 45 18 82 40 37 22 71 40 76 40 4 0 24 12 43 27 20 15
60 39 91 55 30 15 64 36 75 46 12 10 35 27 51 37 17 10 81 62 144 114 62 53
143 120 179 150 37 29 103 86 148 125 44 39 91 80 105 92 33 28 330 348 403
434 17 19 60 69 96 110 124 139 309 399 310 436 0 6 16 31 35 55 19 24 35 50
35 57 0 15 39 101 55 122 6 8 19 42 29 75 10 33 31 82 46 110 15 27 33 73 39
100 7 28 18 59 25 70 16 24 41 112 51 175 4 25 20 81 35 125 18 52 32 120 40
195 6 63 18 171 26 240 22 197 20 257 -26 670 -11 104 -15 120 -36 168 -8 17
-24 69 -36 115 -33 131 -98 269 -162 340 -139 157 -264 274 -327 307 -13 7
-42 27 -64 44 -22 18 -60 40 -85 51 -25 10 -56 26 -70 35 -14 9 -52 24 -85 35
-33 10 -73 26 -90 36 -16 9 -57 25 -90 34 -33 10 -107 32 -165 50 -154 48
-304 60 -665 51 -735 -18 -868 -24 -995 -45 -69 -12 -176 -28 -238 -36 -62 -8
-122 -20 -135 -26 -37 -20 -231 -224 -364 -384 -27 -33 -95 -103 -151 -157
-67 -63 -102 -103 -102 -117 0 -37 41 -44 170 -32 106 9 149 18 285 58 65 20
352 30 605 22 l195 -7 135 -44 c74 -25 155 -58 180 -75 25 -17 63 -42 85 -56
56 -37 129 -88 135 -96 3 -3 32 -23 64 -45 82 -53 125 -101 168 -187 80 -159
116 -345 89 -464 -19 -86 -75 -209 -123 -272 -61 -78 -185 -195 -244 -229 -27
-15 -65 -40 -84 -55 -20 -15 -60 -39 -90 -53 -30 -15 -86 -49 -125 -77 -63
-45 -155 -94 -330 -173 -63 -29 -226 -78 -410 -125 -60 -16 -153 -40 -206 -55
-52 -14 -127 -30 -165 -35 -38 -5 -123 -19 -189 -31 -86 -15 -179 -23 -325
-27 -189 -5 -216 -3 -345 20 -77 14 -160 29 -184 32 -25 4 -201 8 -393 9
l-349 1 -35 38 -35 37 -161 0 -160 0 -37 40 c-34 37 -40 40 -91 40 -72 0 -117
14 -151 46 -15 14 -46 30 -70 35 -24 6 -60 23 -79 38 -19 15 -58 35 -86 45
-28 9 -61 28 -74 41 -12 13 -43 31 -67 39 -24 8 -60 28 -79 43 -99 81 -184
156 -184 163 0 5 -16 14 -35 20 -43 14 -127 105 -165 180 -15 30 -37 63 -48
73 -20 18 -124 177 -214 327 -63 106 -166 314 -198 400 -13 36 -37 86 -52 111
-16 26 -37 72 -47 102 -11 31 -29 69 -42 86 -30 41 -48 150 -48 298 -1 131 0
129 -66 168 -15 9 -17 50 -15 517 0 278 5 532 10 564 7 43 17 66 40 89 22 23
30 40 30 67 0 59 36 160 157 438 247 568 317 693 539 951 232 270 704 739 744
739 10 0 34 18 51 40 l32 40 86 0 c72 0 88 3 107 21 19 18 50 25 174 40 83 10
155 21 159 23 13 8 287 25 501 31 113 3 271 8 351 11 144 5 147 5 168 -18 21
-22 30 -23 193 -28 l170 -5 32 -38 c30 -36 33 -37 99 -37 73 0 108 -13 146
-54 17 -18 35 -26 57 -26 22 0 48 -12 79 -35 25 -19 63 -41 84 -48 21 -8 56
-28 77 -45 21 -17 59 -38 83 -47 23 -8 57 -26 75 -40 17 -14 52 -43 77 -64 30
-24 62 -41 88 -45 48 -7 57 -15 320 -273 224 -219 204 -199 282 -280 56 -59
63 -63 104 -63 39 0 47 -4 76 -40 30 -37 36 -40 80 -40 33 0 52 5 61 17 22 27
92 94 115 110 17 11 30 12 59 4 20 -6 43 -7 49 -3 26 14 275 302 275 316 0 33
158 218 388 452 39 41 79 91 87 110 15 36 146 200 195 244 16 14 36 40 45 59
9 18 44 67 78 108 34 41 68 85 76 96 8 12 44 67 80 121 36 55 80 126 97 158
17 32 39 67 48 77 23 25 68 158 64 190 -2 14 -9 27 -15 27 -7 1 -17 2 -23 3
-5 0 -12 17 -16 38 -7 37 -92 135 -137 158 -18 8 -23 22 -27 69 -4 46 -10 62
-30 78 -30 23 -51 42 -67 60 -6 7 -39 40 -73 73 -35 33 -69 70 -77 82 -9 13
-21 23 -28 23 -7 0 -29 26 -50 58 -37 56 -38 59 -51 207 -7 83 -18 236 -23
340 -13 224 -36 489 -45 503 -6 10 -23 168 -46 412 -6 58 -17 132 -24 165 -15
59 -37 232 -56 435 -5 58 -16 143 -25 190 -8 47 -24 171 -35 275 -11 105 -24
215 -30 245 -8 48 -15 128 -37 429 -4 61 -9 78 -30 98 -17 18 -30 23 -46 19
-68 -20 -74 -19 -103 13 -29 33 -68 39 -109 18z"/>
<path d="M10580 7118 c-136 -23 -267 -51 -284 -60 -11 -6 -56 -19 -100 -30
-45 -11 -92 -27 -106 -36 -14 -9 -47 -28 -74 -43 -88 -47 -229 -178 -278 -259
-44 -73 -51 -82 -100 -146 -27 -34 -48 -65 -48 -68 0 -6 -45 -79 -100 -161
-23 -35 -106 -215 -124 -270 -12 -33 -36 -246 -36 -311 0 -97 30 -164 75 -164
13 0 54 31 104 77 46 43 103 91 127 108 23 16 105 75 181 129 75 54 152 103
170 108 17 5 55 25 84 44 46 32 57 36 101 32 29 -3 62 -14 79 -27 45 -33 98
-49 211 -61 57 -7 134 -18 172 -26 110 -23 183 -18 271 15 42 17 92 42 111 56
19 14 55 35 80 46 25 11 64 33 87 48 23 16 53 32 65 36 62 19 161 134 220 255
24 49 23 310 -1 390 -50 163 -104 215 -263 253 -295 68 -487 88 -624 65z"/>
</g>
</svg>
